<svg xmlns="http://www.w3.org/2000/svg" viewBox="0 0 1113.3 835.93"><defs><style>.cls-1{fill:#d5ccff;}.cls-2{fill:#cca496;}.cls-3{fill:#070c6d;}.cls-4{fill:#724c3b;}.cls-5{fill:#dfb8a7;}.cls-6{fill:#1112c0;}.cls-7{fill:#c69e91;}.cls-8{fill:#885f49;}.cls-9{fill:#f35300;}.cls-10{fill:#fff;}</style></defs><title>Recurso 1</title><g id="Capa_2" data-name="Capa 2"><g id="Capa_1-2" data-name="Capa 1"><circle class="cls-1" cx="546" cy="417.96" r="417.96"/><path class="cls-2" d="M1028.64,529.6s16.61,3.89,28.13,4.33,48-.08,51.35-1.44,2.39-3.58-2.72-6.47-22.3-3.14-22.3-3.14Z"/><path class="cls-3" d="M357.74,393.85s-9.6-4-11.82-1.18S357.74,403,357.74,403Z"/><path class="cls-4" d="M482.77,193.93s-16-4-28,12-18,58-20,81,3,55,10,66,46,43,54,47,94,3,106-3,22-9,24-41-6-81-34-90-61-15-73-33S482.77,193.93,482.77,193.93Z"/><path class="cls-2" d="M454.27,373.43s19.5-16,27.5-16.5c18.18-1.12,12.48-28.48,12.48-28.48L589.09,312a77.83,77.83,0,0,0-3.74,36.77c3,20,10.42,22.16,24.42,28.16s19.5,73.5,18.5,75.5-71,97-71,97l-99-45Z"/><path class="cls-5" d="M594.77,299.93s-4,31-23,46-47,17-61,8-30-26-35-36-6.91-14.77-9-25c-2.7-13.27-4-36-4-54s-7-55,27-63,55,3,66,20,28,48,33,69S594.77,299.93,594.77,299.93Z"/><path class="cls-5" d="M378.77,379.93s-20,0-24,9-8,28-11,57-2,58-5,83-5,47-5,47-31-36-47-59-37-56-46-64-36-24-43-26-33,0-45,9-16,13-22,13-11.15-1.37-19,2c-7.07,3-7,4-7,4s-3-6-7-5-4,6-4,9,1,10,1,10-9-5-12-8-9.55-18-12-20c-3.24-2.65-11-2-10,3s9,21,9,21-15-16-20-16-7,4-5,8,12,17,12,17,29,27,34,27,26-6,44-6,58-19,68-16,22,25,27,36,31,68,40,84,40,62,48,70,31,32,39,30,33-21,36-30,10-47,11-73,26-112,26-113-24-70-24-70Z"/><path class="cls-5" d="M696.77,423.93s22,1,25,9,12,33,13,48,0,41,2,47,13,32,16,46,15,39,15,39,18-10,47-38,88.36-93.28,95-97c5.08-2.85,8.23-3.77,10-4a5.5,5.5,0,0,0,3.38-1.8c3.34-3.76,12.94-11.63,31.6-6.18,24,7,58,27,58,27s12,2,14,1,25-16,28-14,4,5,0,8-23,16-23,16l-2,1s14,1,19,0,13-6,17-8,14-11,17-11,7,1,7,5-21,18-25,20a82,82,0,0,1-11,4s14,1,19,1,30-3,34-1,8,6,6,8-11,3-11,3-42,8-45,8-49,1-55-1-45-19-50-20a26,26,0,0,0-17,2c-6,3-47,60-52,66s-48,63-56,70-17,12-30,28-34,31-43,30-22-11-31-24-15-29-21-37-26-53-30-69-12-80-12-80l12-33Z"/><path class="cls-6" d="M663.77,514.92a24.7,24.7,0,0,0-.78,8.65h0a66.26,66.26,0,0,0,1.16,8.5.38.38,0,0,0,0,.1s0,.06,0,.09c2.24,11.76,6.67,25.76,6,39.16-1,21-15.44,42.49-18.44,54.49s1,63,3,78,8,35,29,52c10.71,8.67,18.82,29.31,24.2,47.46A419.77,419.77,0,0,1,417.8,815.89c0-1.31,0-2.64,0-4,0-12-8-75-14-103s-3-64-2-80c.24-3.92.37-8.31.4-12.93v0c.11-14.26-.64-30.72-1.4-42-1-15,4-50,10-66s2-42,0-44-28-32-41-52a56.86,56.86,0,0,0-12-13.83,28.43,28.43,0,0,0-5.13-3.31c-4.21-2.1-6.84-1.86-6.84-1.86s2-8,17-23c13-13,36.54-19.25,54.3-20,2.72-.11,5.31-.1,7.7,0,5.12.28,12,.81,19.1,1.46,7.74.72,15.84,1.58,22.56,2.43h0c8.87,1.15,15.33,2.3,15.33,3.11s.26,7,.69,15.47c.1,2,.21,4.1.33,6.3.17,3.25.36,6.69.57,10.18.7,11.89,1.55,24.35,2.41,32.05,2,18,9,46,23,63s38,19,38,19c12,0,28-5,41-19s16-37,21-56c2.73-10.39,2.48-23.46,1.69-33.83-.66-8.61-1.69-15.35-1.69-17.17a.4.4,0,0,1,.2-.34,2.82,2.82,0,0,1,1.36-.37h0c2.53-.23,7.91.39,14.65,1.49,18.39,3,46.85,9.57,54.78,12.22a136.43,136.43,0,0,1,16.3,6.78l.15.08.21.11.29.14c5.84,2.87,11.19,5.43,14,7.89,5.85,5,14,27,14,30a9.55,9.55,0,0,1-1.17,3c-4,7.86-9,18.35-23.83,38C691.09,487.44,667.77,501.92,663.77,514.92Z"/><path class="cls-7" d="M333.77,575.93s10.74,11.45,18.23,16.94,15.83,15.19,15.83,15.19-6.05-12.93-15.58-20.42-17.53-21.53-17.53-21.53Z"/><path class="cls-7" d="M767.77,612.93s-10.92,8.24-15.39,14.24a25.76,25.76,0,0,1,3.19-14.24c4.09-7.72,4.46-17.54,4.46-17.54Z"/><path class="cls-8" d="M504.77,175.93s28-2,41,27,15,53,27,76,24,39,28,56,3,40,22,60,74,2.1,74,2.1a59.11,59.11,0,0,1-24-24.1c-11.67-21.65-12-47-11-62s0-42-5-50-3.46-27.92-7.54-40.61c-2.88-9-7.46-11.39-7.46-11.39s-20-49-39-66-38.8-25-57-25c-11,0-27,5-27,5s-21-2-35,7-25,24-31,36-13,22-15,37-6,34-13,49-13,31-14,48,2.31,47,6.31,50,20.58,7.48,33.58,20.48,37.11,7.55,37.11,7.55-14.94-23-18.94-32-19-28.11-11.26-42.24c8.16-14.84,5.2-26.79,8.2-45.79s-3.09-36-2-48C464.77,198.93,467.77,178.93,504.77,175.93Z"/><path class="cls-2" d="M1029.79,504.92a22.9,22.9,0,0,1-6.95,2.12c-3.89.51-21.64.64-21.64.64s15.45,2.43,25.15,2.17a48,48,0,0,0,18.13-4.53s-3.19.1-7.74,0C1034.67,505.21,1032.07,505.12,1029.79,504.92Z"/><path class="cls-2" d="M1014.74,519.81s16.6,3.07,25.66,3.07,22.74-7.35,22.74-7.35l-9.34-.6s-7.14,4.5-13.65,5S1014.74,519.81,1014.74,519.81Z"/><path class="cls-2" d="M48.44,449s8,9.12,11.7,13.2a136.87,136.87,0,0,0,16.72,15.58c6.51,5,16.72,10,16.72,10s-8.81-7-12.13-10.22S69.7,464.8,69.7,464.8s-7.93-8.07-11.19-10.63S51.86,448.14,48.44,449Z"/><path class="cls-2" d="M67.62,439.56s5.49,14.08,9.58,20.8,20.94,15,20.94,15l-3.37-6.41s-10.81-6.15-12.4-8.45-8.85-15.56-8.85-15.56a19.49,19.49,0,0,0-2.64-3.9A7.18,7.18,0,0,0,67.62,439.56Z"/><path class="cls-2" d="M104.7,454.8a34.33,34.33,0,0,1,4.07,8.2c1.28,4.17,3.58,6.3,7.41,6.55s19.66-6,22-8.34,3-3.57,3-4.93-7.83,5-15.92,5.53-12.68.08-14-2-4.52-6.49-4.52-6.49-.78.45-1.11.7S104.7,454.8,104.7,454.8Z"/><path class="cls-9" d="M381.88,284.43l-57.4-26.22h-282A42.51,42.51,0,0,1,0,215.7V135.19A42.51,42.51,0,0,1,42.51,92.68H312.3a42.51,42.51,0,0,1,42.51,42.51V226Z"/><path class="cls-10" d="M95.92,180a36.53,36.53,0,0,1-3.15,15.65,23.89,23.89,0,0,1-9,10.38,25,25,0,0,1-13.47,3.65A25.13,25.13,0,0,1,56.86,206a24.11,24.11,0,0,1-9.13-10.31,35.46,35.46,0,0,1-3.28-15.42v-3a36.34,36.34,0,0,1,3.22-15.71,24,24,0,0,1,9.09-10.42,25,25,0,0,1,13.43-3.63,25,25,0,0,1,13.42,3.63,23.92,23.92,0,0,1,9.09,10.42,36.11,36.11,0,0,1,3.22,15.67ZM83.3,177.22q0-9.51-3.4-14.45a11.1,11.1,0,0,0-9.71-4.94,11.09,11.09,0,0,0-9.67,4.88q-3.41,4.88-3.45,14.3V180c0,6.18,1.14,11,3.41,14.37a11,11,0,0,0,9.79,5.1,11,11,0,0,0,9.63-4.92q3.36-4.92,3.4-14.34Z"/><path class="cls-10" d="M158.6,180a36.53,36.53,0,0,1-3.15,15.65,23.89,23.89,0,0,1-9,10.38,26.68,26.68,0,0,1-26.87,0,24.07,24.07,0,0,1-9.14-10.31,35.45,35.45,0,0,1-3.27-15.42v-3a36.34,36.34,0,0,1,3.21-15.71,24,24,0,0,1,9.09-10.42,26.66,26.66,0,0,1,26.86,0,24,24,0,0,1,9.08,10.42,36.11,36.11,0,0,1,3.22,15.67ZM146,177.22q0-9.51-3.4-14.45a12,12,0,0,0-19.38-.06q-3.4,4.88-3.45,14.3V180c0,6.18,1.14,11,3.41,14.37a11.92,11.92,0,0,0,19.42.18q3.36-4.92,3.4-14.34Z"/><path class="cls-10" d="M184.1,187.51V208.8H171.64V148.37h23.58a27.24,27.24,0,0,1,12,2.49,18.3,18.3,0,0,1,7.95,7.08,19.73,19.73,0,0,1,2.78,10.44q0,8.88-6.08,14T195,187.51Zm0-10.09h11.12q4.93,0,7.53-2.32a8.45,8.45,0,0,0,2.6-6.64,10,10,0,0,0-2.62-7.18,9.72,9.72,0,0,0-7.22-2.82H184.1Z"/><path class="cls-10" d="M261.8,193a6.39,6.39,0,0,0-2.49-5.42q-2.49-1.89-9-4a64.43,64.43,0,0,1-10.26-4.13q-10.29-5.56-10.29-15a14.58,14.58,0,0,1,2.76-8.73,18,18,0,0,1,7.93-6,29.79,29.79,0,0,1,11.6-2.16,27.07,27.07,0,0,1,11.54,2.35,18.38,18.38,0,0,1,7.86,6.62,17.28,17.28,0,0,1,2.8,9.71H261.84a8.17,8.17,0,0,0-2.61-6.46c-1.75-1.53-4.19-2.3-7.35-2.3s-5.41.64-7.1,1.93a6.11,6.11,0,0,0-2.53,5.08,5.83,5.83,0,0,0,3,4.94,33.37,33.37,0,0,0,8.74,3.74q10.62,3.19,15.48,7.93a15.76,15.76,0,0,1,4.85,11.78,14.54,14.54,0,0,1-5.93,12.31q-5.94,4.46-16,4.46a30.88,30.88,0,0,1-12.7-2.55,20.06,20.06,0,0,1-8.74-7,18,18,0,0,1-3-10.29h12.5q0,10,11.95,10a11.65,11.65,0,0,0,6.93-1.8A5.89,5.89,0,0,0,261.8,193Z"/><path class="cls-10" d="M293.15,196.81a6.7,6.7,0,0,1,4.87,1.78,6.51,6.51,0,0,1,0,9.09,7.51,7.51,0,0,1-9.71,0,6,6,0,0,1-1.84-4.52,6.1,6.1,0,0,1,1.84-4.55A6.65,6.65,0,0,1,293.15,196.81Zm5-6.56h-10l-1.41-41.88h12.78Z"/></g></g></svg>