<svg xmlns="http://www.w3.org/2000/svg" viewBox="0 0 932.6 246.79"><defs><style>.cls-1{fill:#1112c0;}</style></defs><title>Horizontal-azul-sin fondo</title><g id="Capa_2" data-name="Capa 2"><g id="Capa_1-2" data-name="Capa 1"><path class="cls-1" d="M325.38,146.87l-140.52,98.4a8.37,8.37,0,0,1-13.07-5.74,104.38,104.38,0,0,1,152.67-106.9A8.36,8.36,0,0,1,325.38,146.87Z"/><path class="cls-1" d="M3.54,146.87l140.52,98.4a8.37,8.37,0,0,0,13.07-5.74A104.38,104.38,0,0,0,4.46,132.63,8.37,8.37,0,0,0,3.54,146.87Z"/><circle class="cls-1" cx="164.46" cy="52.18" r="52.18"/><path class="cls-1" d="M422.64,91.23v91.88H393.29V91.23H381.1V68.88h12.19V54.21q0-13.77,8.13-23,9.48-10.6,26.19-10.61h16.71V45.4H432.81q-10.15,0-10.16,10.61V68.88h21.67V91.23Z"/><path class="cls-1" d="M513.6,202.06q-3.84,10.16-8.8,15.13-9,9-25.28,9H468V199.81h6.77q11.06,0,14.67-10.61l5-14.45L454.24,65.49h30.93l24.38,72.69L533,65.49H564Z"/><path class="cls-1" d="M651.84,175q-13.55,9.48-35.44,9.48-7.9,0-13.54-.45A65.14,65.14,0,0,1,590,181.52a53.7,53.7,0,0,1-23.7-14l19.19-19.19a36.32,36.32,0,0,0,16,9.26,57.78,57.78,0,0,0,15.35,1.81q8.58,0,14.22-2.71,6.54-3.39,6.55-9.48,0-9.71-12.42-10.83l-18.51-1.81q-34.32-3.39-34.31-33,0-17.61,13.77-28,12.65-9.48,31.6-9.48,14.67,0,25.06,2.93a48.92,48.92,0,0,1,19.86,10.84L644.62,96.2a29.29,29.29,0,0,0-12.42-6.32,64,64,0,0,0-14.9-1.58q-16.71,0-16.71,11.29,0,9,12.19,10.16l18.51,1.81q35,3.39,35,34.54Q666.3,164.81,651.84,175Z"/><path class="cls-1" d="M713.38,133.44q0,26.19,25.73,26.19a36.35,36.35,0,0,0,26.64-11.06L783.58,166q-9.71,9.7-19,13.77-10.61,4.74-25.73,4.74a70.49,70.49,0,0,1-20.32-2.71,47.45,47.45,0,0,1-17.38-9.48A47.28,47.28,0,0,1,689,153.76q-4.51-12.4-4.52-29.57,0-28.22,14.22-44.47,13.77-15.59,37-15.58,23.92,0,37.93,16Q787,95.53,787,120.35v13.09Zm44.69-20.09a33.93,33.93,0,0,0-2.71-12.64q-5.42-12.19-19.64-12.19t-19.64,12.19a33.73,33.73,0,0,0-2.71,12.64Z"/><path class="cls-1" d="M843.59,183.1q-16.94,0-26.19-10.61-8.13-9.26-8.13-23V22.37h29.35V147.66q0,10.6,10.38,10.61h11.29V183.1Z"/><path class="cls-1" d="M910.92,91.23v91.88H881.57V91.23H869.38V68.88h12.19V54.21q0-13.77,8.13-23,9.48-10.6,26.19-10.61H932.6V45.4H921.09q-10.15,0-10.16,10.61V68.88H932.6V91.23Z"/></g></g></svg>