<svg xmlns="http://www.w3.org/2000/svg" viewBox="0 0 473.36 258.89"><defs><style>.cls-1{fill:#c7cfff;}.cls-2{fill:#663e23;}.cls-3{fill:#7c4e2e;}.cls-4{fill:#158464;}.cls-5{fill:#0c6746;}.cls-6{fill:#76a33a;}.cls-7{fill:#583b1c;}.cls-8{fill:#724821;}.cls-9{fill:#578c35;}.cls-10{fill:#63a041;}</style></defs><title>1</title><g id="Capa_2" data-name="Capa 2"><g id="Capa_1-2" data-name="Capa 1"><rect class="cls-1" width="473.36" height="258.89" rx="14.48"/><rect class="cls-2" x="186.69" y="196.19" width="3.54" height="37.28"/><rect class="cls-3" x="184.39" y="196.19" width="2.97" height="37.28"/><rect class="cls-2" x="164.56" y="196.19" width="2.45" height="37.28"/><rect class="cls-3" x="162.97" y="196.19" width="2.05" height="37.28"/><path class="cls-4" d="M184.39,183.43a19.41,19.41,0,0,1-38.81,0c0-10.72,8.69-61.26,19.41-61.26S184.39,172.71,184.39,183.43Z"/><path class="cls-5" d="M213.17,176.57a26.26,26.26,0,0,1-52.52,0c0-14.5,11.76-82.89,26.26-82.89S213.17,162.07,213.17,176.57Z"/><rect class="cls-3" x="294.06" y="212.79" width="9.45" height="20.68"/><path class="cls-6" d="M293.51,93.31,270,206.2a7.17,7.17,0,0,0,7,8.63h43.65a7.16,7.16,0,0,0,7-8.63L304.06,93.31A5.39,5.39,0,0,0,293.51,93.31Z"/><rect class="cls-7" x="242.63" y="101.55" width="5.98" height="131.91"/><rect class="cls-8" x="238.4" y="101.55" width="5.11" height="131.91"/><circle class="cls-9" cx="224.19" cy="67.08" r="39.4"/><path class="cls-10" d="M239.39,52.7A39.39,39.39,0,0,1,200,92.09a38.8,38.8,0,0,1-6.69-.57,39.39,39.39,0,0,1,30.9-63.83,40,40,0,0,1,6.7.56A39.32,39.32,0,0,1,239.39,52.7Z"/><rect class="cls-8" x="228.95" y="120.09" width="4.03" height="36.77" transform="translate(-37.78 155.67) rotate(-34.61)"/><rect class="cls-7" x="254.53" y="109.13" width="4.3" height="36.77" transform="matrix(-0.82, -0.57, 0.57, -0.82, 395.54, 378.23)"/><circle class="cls-9" cx="213.17" cy="113.43" r="17.4"/><path class="cls-10" d="M219.88,107.08a17.4,17.4,0,0,1-17.4,17.4,18,18,0,0,1-3-.25A17.41,17.41,0,0,1,213.17,96a17,17,0,0,1,3,.25A17.4,17.4,0,0,1,219.88,107.08Z"/><circle class="cls-9" cx="269.8" cy="104.11" r="31.4"/><path class="cls-10" d="M281.9,92.65a31.43,31.43,0,0,1-36.73,30.94,31.39,31.39,0,0,1,30-50.42A31.31,31.31,0,0,1,281.9,92.65Z"/><circle class="cls-9" cx="277.44" cy="52.15" r="26.72"/><path class="cls-10" d="M287.75,42.39A26.72,26.72,0,0,1,261,69.12a26.08,26.08,0,0,1-4.54-.39,26.72,26.72,0,0,1,21-43.3,27.18,27.18,0,0,1,4.54.38A26.68,26.68,0,0,1,287.75,42.39Z"/><path class="cls-7" d="M152,232.45H321.32a4.6,4.6,0,0,1,4.6,4.6v0a0,0,0,0,1,0,0H147.45a0,0,0,0,1,0,0v0A4.6,4.6,0,0,1,152,232.45Z"/></g></g></svg>