<svg xmlns="http://www.w3.org/2000/svg" viewBox="0 0 473.36 258.89"><defs><style>.cls-1{fill:#9f9eab;}.cls-2{fill:#4848ff;}.cls-3{fill:#0000fe;}.cls-4{fill:#d2d3f3;}</style></defs><title>2</title><g id="Capa_2" data-name="Capa 2"><g id="Capa_1-2" data-name="Capa 1"><rect class="cls-1" width="473.36" height="258.89" rx="14.48"/><path class="cls-2" d="M337.7,129.44a102.32,102.32,0,1,1-11.59-47.37,1,1,0,0,1,.07.15,100,100,0,0,1,4.52,9.93,101.26,101.26,0,0,1,6.6,28.27Q337.71,124.88,337.7,129.44Z"/><path class="cls-3" d="M337.7,129.44A102.46,102.46,0,1,1,140.68,90c6.48,31.18,30.66,119,115,111.51,68.89-6.1,77.63-68.59,77.06-103.45a101.34,101.34,0,0,1,4.51,22.41Q337.71,124.88,337.7,129.44Z"/><path class="cls-4" d="M201.32,218.14c-3.7-.25-19.15-12.63-26.3-28.21s-9.57-12-13.79-18.89-5.23-14.55-6.63-16.47S142.08,141.29,140,136.06s-3.32-8-3.7-9.57-.77-15.71,1.53-22a98.08,98.08,0,0,0,4.21-17.36c0-.09,0-.26,0-.5a102.45,102.45,0,0,1,24.83-33.59c.55,1.6,1.65,3.6,3.57,2.32,0,0,5.79-6.4,8.34-4.62s-4.08,7.79-2,9.07,9.32-4.22,10.85-2.68.25,14.42-2,17.61-4.6,6.64-6.9,3.83,1.53-7.53-.64-7.91S174,73.63,174,75.42s-2.43-.64-5-.38-7.66,5.36-6.51,8.17,5.49,8.17,6,4.47,4.09-9.58,5.36-8.05,6.38,2.17,6.13,13.15,1.28,9.83-5.49,10.73-17.74,25.4-17.11,28.21,9.45,11.87,8.81,13.4l-.64,1.54s-6-4.6-6.12-6.77-3.07-6.89-4.85-5.49-3.45,6.26-1.79,7.53a7.94,7.94,0,0,1,3.06,6c0,2.43-.89,7.41.64,5.62s4.47-5.11,6.89-4.09,11.75,4.6,13.79,6.13.77,4,2.94,5.11,16.08,4.47,16,8.81-1,15.83-2.68,18.63-2.42,2.17-2.68,8.81,4.34,12.51,6,14.56S205,218.4,201.32,218.14Z"/><path class="cls-4" d="M216.89,66c2.69-2.31,9.07-14.05,8.43-20.3s-1.79-8.3-6-7S209.49,45,208.09,44.4s.25-2.42,1.27-3.45-7.79-1-10.59.64-9.71,7.42-8.3,8.88,4.85-.71,5,1.08.38,5.49,1.27,5.62,2.94,1.53,1.54,3.44-2.56,6.77-3.07,10.09-6.51,11.62-3.83,11.36S210.51,71.47,216.89,66Z"/><path class="cls-4" d="M209.49,74.91s12.13-.51,11,.9S216.2,79.38,215,80.4s-4.51-1.24-5.53-2.79A2.21,2.21,0,0,1,209.49,74.91Z"/><path class="cls-4" d="M236.51,47.91s7.19-1.53,8.79,1.22-.64,9.12-3.26,9.19-4.27-5.75-5-6.51S234.87,49,236.51,47.91Z"/><path class="cls-4" d="M251.81,42.1s4.47-2,4.79.9,4.91,1.66,2.74,3.76-5.68,2.49-6.64,1.28a4.71,4.71,0,0,1-.89-4.6C252.47,41.85,251.81,42.1,251.81,42.1Z"/><path class="cls-4" d="M337.3,120.42a1.86,1.86,0,0,0-2.15.62c-1.19,1.36-3.07-2-3.83-3.92s-2-.25-.68,3.32.25,10.56.68,11.41,2.21-.17,2.38,1.87.17,18.89-.17,20.17-1.79,1.7-1.87,3.49-2,.85-1.87.59.59-16.68,1.19-19,.08-5.79-.34-6-1.87,5-1.79,6.64-2.81,5.87-4.08,8-2.64,6-2.39,6,5.11-1,5.62.68-1.62,10-3,12-5.79,8.43-7.74,8.17.25-10.47-.86-11.49-2.55-5.11-1.7-5.79,5.62-2,5.11-2.63a10.89,10.89,0,0,1-2.3-3.28c-.59-1.58-.72-12.6-1.36-13.83s-10,15.83-11.62,15.83-6.17-14.47-6.85-16.26-7-2.29-7.57-1.7.17,5.36-1.88,7.75-6.38,2.46-9,3.66-4.85,2.29-5.19.25-1.87-4.34-2.64-6.3-4.89-8-5.42-8.76,5,10.64,5.17,12.42,2.13,7.41,4.42,6.81,8.34-2,8.17-.08-5.27,8.85-8.93,12-5.87,3.4-6.13,6.55-1,7.74-2.13,10-4.93,2.81-5.19,4.51-.42,7.32-1.7,7.58-4.43,1.1-5.19,3.32-8.51,2-9.7,0-4.17-16.51-3.07-18,1-6.38-.59-8.59-3-3.15-3.83-6.13-1.88-5.53-3.92-6S223,159,220.25,157.89a21.34,21.34,0,0,1-10.46-9.19c-3.07-5.45-.68-13.45,2-17.11s9.11-8.68,12.6-10.21a21.21,21.21,0,0,1,7.74-1.45s-1-2.13,1.28-2.21,6,3.06,7.06,4.25a6.88,6.88,0,0,0,6.13,2.73c3.49-.17,16.77.51,17.28-.34s2-.68,1.7-2-.42-3-2-2.8-6.55-.78-7.32-1.37-2.21-3.65-2.63-2.12-4,1.19-5.45.76-7.15-5.87-8.85-7.23-5,.17-6,1.45a56,56,0,0,1-4.25,5.19c-1.37,1.36-3.15,2.89-4.43,3.23s-3.17.77-4.14-.25-2.34-9.11,0-8.77,6.69.09,6.1-.6-3.3-2.85-3.49-4.25,3.76-2,3.32-3.19-2.87-4-4.41-4.09-4.21,1.53-3.89-.19,5.74-4.59,5.17-5.74-2.23-.26-2-2.81,1.94-4.79,4.06-3.32,1.24,2.62,3,4.59,1.34,3.58,3.06,6,2.81,2.75,3.39.26,2.36-7.6,3.44-6.89,4.85,6.57,5.68,5,6.51-9,5.75-9.58-2.36.26-2.36.9-4.41,5.55-5.11,5.1-2.87-5.17-4.09-4.66-3.19,2-3.76,1.6-.58-6.83,1.08-9.19,3-13.66,10-13.72,12.7,4.85,14.68,4.91,11.49-2.23,10.09-2.94-4.09-.76-4.79-1.85-4.53-3-4-7.46,5.43-8.94,5.43-6.58a46.26,46.26,0,0,0,1.27,8.17c.45,2,0,3.38,1.41,3.51s.57-4.85,1.79-5.42.38-.64,3.19,0,1.66-10.86.76-11.17-5.55.19-8.68-2.94-1.8-5.41-.57-4.34c0,0,2.17,2.24,3.44,1.89s1.35-.36,2.62.73,1.47,2.23,2.24,2.23,1.46.89,1.91,1,7.34,1.34,7.34,0-.51-4.4,0-5.17,3.26,3.13,5.75,4.28S293.42,49,295,48.72c.7-.1,1.07-.81,1.26-1.57a102.79,102.79,0,0,1,29.83,34.92,1,1,0,0,1,.07.15c1.76,3.57,3.25,6.88,4.52,9.93A101.26,101.26,0,0,1,337.3,120.42Z"/><path class="cls-4" d="M266.81,185.08c1.32-2.08,7.45-8,9-6.89s-.26,3.36-1.87,6.51-3.19,7.45-5.15,5.53S264.13,189.3,266.81,185.08Z"/><path class="cls-4" d="M332.23,162.57a102.67,102.67,0,0,1-26.49,41.23,2.76,2.76,0,0,1-.7.17s2.56-4.34,0-3.89-1.4-4.4,0-6,7.21-10.4,11.56-13.08,9.7-6.32,10.53-8.88,2.1-10,3.32-11.1,1.66.51,1.66.51A5.44,5.44,0,0,1,332.23,162.57Z"/></g></g></svg>