<svg xmlns="http://www.w3.org/2000/svg" viewBox="0 0 473.36 258.89"><defs><style>.cls-1{fill:#9e9daa;}.cls-2{fill:#4848ff;}.cls-3{fill:#0000fd;}.cls-4{fill:#d1d2f2;}.cls-10,.cls-11,.cls-12,.cls-13,.cls-14,.cls-15,.cls-5,.cls-6,.cls-7,.cls-8,.cls-9{fill:none;stroke:#3f3d56;stroke-miterlimit:10;}.cls-6{stroke-dasharray:7.01 7.01;}.cls-7{stroke-dasharray:6.87 6.87;}.cls-8{stroke-dasharray:6.9 6.9;}.cls-9{stroke-dasharray:6.59 6.59;}.cls-10{stroke-dasharray:6.66 6.66;}.cls-11{stroke-dasharray:6.91 6.91;}.cls-12{stroke-dasharray:7.14 7.14;}.cls-13{stroke-dasharray:7.1 7.1;}.cls-14{stroke-dasharray:6.95 6.95;}.cls-15{stroke-dasharray:7.11 7.11;}.cls-16{fill:#ff0;}.cls-17{fill:#dca591;}.cls-18{fill:#f0b7a0;}.cls-19{fill:#140000;}.cls-20{fill:#bbb9bf;}.cls-21{fill:#101931;}.cls-22{fill:#dab4a6;}.cls-23{fill:#fbd0bd;}.cls-24{fill:#4b2922;}.cls-25{fill:#bdc5c8;}.cls-26{fill:#344751;}.cls-27{fill:#4f6879;}.cls-28{fill:#72301f;}.cls-29{fill:#ccb2a4;}.cls-30{fill:#1a1618;}.cls-31{fill:#813922;}.cls-32{fill:#382420;}.cls-33{fill:#231615;}.cls-34{fill:#b27763;}.cls-35{fill:#c48372;}.cls-36{fill:#7c7cd1;}.cls-37{fill:#3f1e1b;}.cls-38{fill:#dd9185;}.cls-39{fill:#fabca8;}.cls-40{fill:#c9c7d7;}.cls-41{fill:#242451;}.cls-42{fill:#14142d;}.cls-43{fill:#957873;}.cls-44{fill:#8e8852;}.cls-45{fill:#a28fff;}.cls-46{fill:#07070a;}.cls-47{fill:#b2a767;}.cls-48{fill:#471707;}.cls-49{opacity:0.5;}</style></defs><title>Recurso 4</title><g id="Capa_2" data-name="Capa 2"><g id="Capa_1-2" data-name="Capa 1"><rect class="cls-1" width="473.36" height="258.89" rx="14.48"/><path class="cls-2" d="M337.7,129.44a102.32,102.32,0,1,1-11.59-47.37,1,1,0,0,1,.07.15,100,100,0,0,1,4.52,9.93,101.26,101.26,0,0,1,6.6,28.27Q337.71,124.88,337.7,129.44Z"/><path class="cls-3" d="M337.7,129.44A102.46,102.46,0,1,1,140.68,90c6.48,31.18,30.66,119,115,111.51,68.89-6.1,77.63-68.59,77.06-103.45a101.34,101.34,0,0,1,4.51,22.41Q337.71,124.88,337.7,129.44Z"/><path class="cls-4" d="M201.32,218.14c-3.7-.25-19.15-12.63-26.3-28.21s-9.57-12-13.79-18.89-5.23-14.55-6.63-16.47S142.08,141.29,140,136.06s-3.32-8-3.7-9.57-.77-15.71,1.53-22a98.08,98.08,0,0,0,4.21-17.36c0-.09,0-.26,0-.5a102.45,102.45,0,0,1,24.83-33.59c.55,1.6,1.65,3.6,3.57,2.32,0,0,5.79-6.4,8.34-4.62s-4.08,7.79-2,9.07,9.32-4.22,10.85-2.68.25,14.42-2,17.61-4.6,6.64-6.9,3.83,1.53-7.53-.64-7.91S174,73.63,174,75.42s-2.43-.64-5-.38-7.66,5.36-6.51,8.17,5.49,8.17,6,4.47,4.09-9.58,5.36-8.05,6.38,2.17,6.13,13.15,1.28,9.83-5.49,10.73-17.74,25.4-17.11,28.21,9.45,11.87,8.81,13.4l-.64,1.54s-6-4.6-6.12-6.77-3.07-6.89-4.85-5.49-3.45,6.26-1.79,7.53a7.94,7.94,0,0,1,3.06,6c0,2.43-.89,7.41.64,5.62s4.47-5.11,6.89-4.09,11.75,4.6,13.79,6.13.77,4,2.94,5.11,16.08,4.47,16,8.81-1,15.83-2.68,18.63-2.42,2.17-2.68,8.81,4.34,12.51,6,14.56S205,218.4,201.32,218.14Z"/><path class="cls-4" d="M216.89,66c2.69-2.31,9.07-14.05,8.43-20.3s-1.79-8.3-6-7S209.49,45,208.09,44.4s.25-2.42,1.27-3.45-7.79-1-10.59.64-9.71,7.42-8.3,8.88,4.85-.71,5,1.08.38,5.49,1.27,5.62,2.94,1.53,1.54,3.44-2.56,6.77-3.07,10.09-6.51,11.62-3.83,11.36S210.51,71.47,216.89,66Z"/><path class="cls-4" d="M209.49,74.91s12.13-.51,11,.9S216.2,79.38,215,80.4s-4.51-1.24-5.53-2.79A2.21,2.21,0,0,1,209.49,74.91Z"/><path class="cls-4" d="M236.51,47.91s7.19-1.53,8.79,1.22-.64,9.12-3.26,9.19-4.27-5.75-5-6.51S234.87,49,236.51,47.91Z"/><path class="cls-4" d="M251.81,42.1s4.47-2,4.79.9,4.91,1.66,2.74,3.76-5.68,2.49-6.64,1.28a4.71,4.71,0,0,1-.89-4.6C252.47,41.85,251.81,42.1,251.81,42.1Z"/><path class="cls-4" d="M337.3,120.42a1.86,1.86,0,0,0-2.15.62c-1.19,1.36-3.07-2-3.83-3.92s-2-.25-.68,3.32.25,10.56.68,11.41,2.21-.17,2.38,1.87.17,18.89-.17,20.17-1.79,1.7-1.87,3.49-2,.85-1.87.59.59-16.68,1.19-19,.08-5.79-.34-6-1.87,5-1.79,6.64-2.81,5.87-4.08,8-2.64,6-2.39,6,5.11-1,5.62.68-1.62,10-3,12-5.79,8.43-7.74,8.17.25-10.47-.86-11.49-2.55-5.11-1.7-5.79,5.62-2,5.11-2.63a10.89,10.89,0,0,1-2.3-3.28c-.59-1.58-.72-12.6-1.36-13.83s-10,15.83-11.62,15.83-6.17-14.47-6.85-16.26-7-2.29-7.57-1.7.17,5.36-1.88,7.75-6.38,2.46-9,3.66-4.85,2.29-5.19.25-1.87-4.34-2.64-6.3-4.89-8-5.42-8.76,5,10.64,5.17,12.42,2.13,7.41,4.42,6.81,8.34-2,8.17-.08-5.27,8.85-8.93,12-5.87,3.4-6.13,6.55-1,7.74-2.13,10-4.93,2.81-5.19,4.51-.42,7.32-1.7,7.58-4.43,1.1-5.19,3.32-8.51,2-9.7,0-4.17-16.51-3.07-18,1-6.38-.59-8.59-3-3.15-3.83-6.13-1.88-5.53-3.92-6S223,159,220.25,157.89a21.34,21.34,0,0,1-10.46-9.19c-3.07-5.45-.68-13.45,2-17.11s9.11-8.68,12.6-10.21a21.21,21.21,0,0,1,7.74-1.45s-1-2.13,1.28-2.21,6,3.06,7.06,4.25a6.88,6.88,0,0,0,6.13,2.73c3.49-.17,16.77.51,17.28-.34s2-.68,1.7-2-.42-3-2-2.8-6.55-.78-7.32-1.37-2.21-3.65-2.63-2.12-4,1.19-5.45.76-7.15-5.87-8.85-7.23-5,.17-6,1.45a56,56,0,0,1-4.25,5.19c-1.37,1.36-3.15,2.89-4.43,3.23s-3.17.77-4.14-.25-2.34-9.11,0-8.77,6.69.09,6.1-.6-3.3-2.85-3.49-4.25,3.76-2,3.32-3.19-2.87-4-4.41-4.09-4.21,1.53-3.89-.19,5.74-4.59,5.17-5.74-2.23-.26-2-2.81,1.94-4.79,4.06-3.32,1.24,2.62,3,4.59,1.34,3.58,3.06,6,2.81,2.75,3.39.26,2.36-7.6,3.44-6.89,4.85,6.57,5.68,5,6.51-9,5.75-9.58-2.36.26-2.36.9-4.41,5.55-5.11,5.1-2.87-5.17-4.09-4.66-3.19,2-3.76,1.6-.58-6.83,1.08-9.19,3-13.66,10-13.72,12.7,4.85,14.68,4.91,11.49-2.23,10.09-2.94-4.09-.76-4.79-1.85-4.53-3-4-7.46,5.43-8.94,5.43-6.58a46.26,46.26,0,0,0,1.27,8.17c.45,2,0,3.38,1.41,3.51s.57-4.85,1.79-5.42.38-.64,3.19,0,1.66-10.86.76-11.17-5.55.19-8.68-2.94-1.8-5.41-.57-4.34c0,0,2.17,2.24,3.44,1.89s1.35-.36,2.62.73,1.47,2.23,2.24,2.23,1.46.89,1.91,1,7.34,1.34,7.34,0-.51-4.4,0-5.17,3.26,3.13,5.75,4.28S293.42,49,295,48.72c.7-.1,1.07-.81,1.26-1.57a102.79,102.79,0,0,1,29.83,34.92,1,1,0,0,1,.07.15c1.76,3.57,3.25,6.88,4.52,9.93A101.26,101.26,0,0,1,337.3,120.42Z"/><path class="cls-4" d="M266.81,185.08c1.32-2.08,7.45-8,9-6.89s-.26,3.36-1.87,6.51-3.19,7.45-5.15,5.53S264.13,189.3,266.81,185.08Z"/><path class="cls-4" d="M332.23,162.57a102.67,102.67,0,0,1-26.49,41.23,2.76,2.76,0,0,1-.7.17s2.56-4.34,0-3.89-1.4-4.4,0-6,7.21-10.4,11.56-13.08,9.7-6.32,10.53-8.88,2.1-10,3.32-11.1,1.66.51,1.66.51A5.44,5.44,0,0,1,332.23,162.57Z"/><line class="cls-5" x1="397.26" y1="211.15" x2="396.27" y2="207.79"/><line class="cls-6" x1="394.3" y1="201.07" x2="351.83" y2="56.57"/><polyline class="cls-5" points="350.85 53.21 349.86 49.85 348.39 53.03"/><line class="cls-7" x1="345.49" y1="59.26" x2="271.75" y2="218.12"/><polyline class="cls-5" points="270.31 221.24 268.83 224.41 265.34 224.5"/><line class="cls-8" x1="258.43" y1="224.68" x2="137.67" y2="227.72"/><polyline class="cls-5" points="134.22 227.81 130.72 227.9 128.18 225.49"/><line class="cls-9" x1="123.42" y1="220.94" x2="59.06" y2="159.58"/><polyline class="cls-5" points="56.67 157.31 54.14 154.9 55.68 151.75"/><line class="cls-10" x1="58.61" y1="145.77" x2="98.17" y2="65.04"/><polyline class="cls-5" points="99.63 62.05 101.17 58.91 104.67 58.78"/><line class="cls-11" x1="111.58" y1="58.53" x2="342.91" y2="50.11"/><polyline class="cls-5" points="346.36 49.98 349.86 49.85 346.56 51.02"/><line class="cls-12" x1="339.84" y1="53.41" x2="60.8" y2="152.53"/><polyline class="cls-5" points="57.44 153.72 54.14 154.9 57.47 155.97"/><polyline class="cls-13" points="64.23 158.16 268.83 224.41 390.62 212.48"/><polyline class="cls-5" points="394.15 212.13 397.63 211.79 394.52 210.19"/><line class="cls-14" x1="388.35" y1="207" x2="107.37" y2="62.1"/><polyline class="cls-5" points="104.28 60.51 101.17 58.91 101.79 62.35"/><line class="cls-15" x1="103.06" y1="69.35" x2="130.19" y2="219.89"/><line class="cls-5" x1="130.82" y1="223.4" x2="131.44" y2="226.84"/><path class="cls-16" d="M419.85,209.74a22.87,22.87,0,0,1-1.71,8.7,21.48,21.48,0,0,1-1.54,3.07,22.7,22.7,0,0,1-3.7,4.69,23.36,23.36,0,0,1-3.62,2.88c-.56.36-1.14.69-1.73,1l-.42.22-.19.09-.12.06c-.5.25-1,.47-1.55.68a24.28,24.28,0,0,1-3.27,1l-.39.08a22.33,22.33,0,0,1-3.58.46l-.8,0h-.68a.4.4,0,0,1-.11,0c-.38,0-.75,0-1.12,0s-.89-.07-1.33-.12a22.93,22.93,0,0,1-14.37-7.64,23.26,23.26,0,0,1-2.41-3.3l-.09-.14a23,23,0,1,1,42.73-11.71Z"/><path class="cls-17" d="M390.08,218a29.4,29.4,0,0,0,2.23-10.82c.09-6.22,9.19-1,9.19-1s.05,7.15,1.21,10.44-5.3,7.25-8.45,6A7.79,7.79,0,0,1,390.08,218Z"/><path class="cls-18" d="M390.76,198.59c0,.31,0,3,0,3s-.62-1.08-1-.74a3.11,3.11,0,0,0-.16,2.69,5,5,0,0,0,1.4,2c.18,0,.43-.31.43-.31a16,16,0,0,0,.46,3c.33,1,3,2.94,5.39,2.94s4.64-1.76,4.89-2.44,1-3.25,1-3.25a7.36,7.36,0,0,0,1.14-1c.19-.28.59-2.69.28-2.79a1.8,1.8,0,0,0-.68,0,11.42,11.42,0,0,0,.8-4.24c-.21-1.67-1.54-5.2-3.65-5.23s-7.58-1.52-9.16,2.23S390.76,198.59,390.76,198.59Z"/><path class="cls-19" d="M402.55,195a26.29,26.29,0,0,1,1.18,3.18,32.7,32.7,0,0,1,0,3.44l0,.32s.44.05.68-.8,1.16-2.57,1.17-3.14a14.52,14.52,0,0,0-1.22-4.66c-.57-.71-2.1-1.89-2.8-2.55s-2-.56-3-.85a15.74,15.74,0,0,0-3.85-.28c-.53,0-2.08,1.1-2.73,1.14s-2.18,2.59-2.21,3.27a20,20,0,0,0,0,2.94,19.39,19.39,0,0,0,.31,3.26c.21.61.77,1.91.86,1.77s-.1-3,.24-3.72,1.9-1.37,2-2.15,1.11-.32,1.9,0,1.36,1,3,1,3.53-1.51,3.85-1.78A3.3,3.3,0,0,1,402.55,195Z"/><path class="cls-20" d="M408.06,228.45a2.69,2.69,0,0,1-1.12,1.94l-.12.06c-.5.25-1,.47-1.55.68a24.28,24.28,0,0,1-3.27,1l-.39.08a22.33,22.33,0,0,1-3.58.46l-.8,0h-.68a.4.4,0,0,1-.11,0c-.38,0-.75,0-1.12,0a5.14,5.14,0,0,1-2.13-1.1c-3.72-3.34-6.64-14.59-6.64-14.59a25.92,25.92,0,0,0,3.55-4.16h0a3.47,3.47,0,0,0,.29-.64l0,0h0c.52-1.56,1.63-1.53,1.63-1.53h0v0c0,.25-.26,1.56-.36,2.09a.43.43,0,0,1,0,0s0,.07,0,.1c-.08.41,1.1,1.65,1.84,2.58a4.79,4.79,0,0,0,2.58,1.83c.74.07,2,1.4,2,1.4,0-.72,2.21-1.19,2.95-2.14s.58-4.78.72-5.12h0c.05-.13.28.06.59.38h0c.21.23.46.53.7.83s.56.75.75,1C404.38,214.49,408.06,224.93,408.06,228.45Z"/><path class="cls-21" d="M397.23,232.7h-.68a.4.4,0,0,1-.11,0c-.38,0-.75,0-1.12,0s-.89-.07-1.33-.12a22.93,22.93,0,0,1-14.37-7.64,23.26,23.26,0,0,1-2.41-3.3,1.61,1.61,0,0,1,.66-.72c1.53-.74,7.47-3.64,9.28-5.41s3.16-3.58,3.27-3.35h0a3.87,3.87,0,0,0-.31.69h0a4.4,4.4,0,0,0-.25,2.22,14.07,14.07,0,0,0,.6,2c.38,1.12.9,2.51,1.41,3.84.68,1.78,1.36,3.44,1.68,4.16.54,1.22,2.59,5.41,3.65,7.56Z"/><path class="cls-21" d="M416.6,221.51a22.7,22.7,0,0,1-3.7,4.69,23.36,23.36,0,0,1-3.62,2.88c-.56.36-1.14.69-1.73,1l-.42.22-.19.09-.12.06c-.5.25-1,.47-1.55.68a31.83,31.83,0,0,0,.56-7.13c-.37-3.32-2.32-8.24-2.47-8.79a23.71,23.71,0,0,1-1-3.42h0a2.34,2.34,0,0,0,.7.83,7,7,0,0,0,2.71,1.26c2.9.74,8.72,2.1,9.69,3.91A17.91,17.91,0,0,1,416.6,221.51Z"/><path class="cls-16" d="M124.16,57.86a23,23,0,0,1-7,16.46,23.48,23.48,0,0,1-3.62,2.88c-.56.35-1.13.69-1.72,1l-.43.22a23,23,0,0,1-5.13,1.83l-.39.09c-.63.13-1.28.24-1.93.31l-.13,0h-.09l-.49,0c-.69.06-1.38.09-2.08.09h-.46c-.6,0-1.2,0-1.79-.11l-.65-.07A22.94,22.94,0,0,1,81.44,69.56c-.3-.49-.58-1-.84-1.53a23,23,0,1,1,43.56-10.17Z"/><path class="cls-22" d="M108.08,55.57a15.86,15.86,0,0,0-1.4,6C106.6,65,103,70,100.8,69S94.93,63.16,95,61.79a8.33,8.33,0,0,1,2-4.3c.71-.67,1.35-1.37,2-4.42S108.08,55.57,108.08,55.57Z"/><path class="cls-23" d="M104.4,59.72s2.8-1.22,3.68-2.51A27.47,27.47,0,0,0,109.84,54a.74.74,0,0,0,1-.23c.4-.59,2.18-2.56,2.15-3.65s-.6-.82-.6-.82,2.21-5.17,1-6-2.46-2.4-6.12-2.26S102,40.21,101,42.18s-2.37,5-2.37,5-.81-1-1.43-.47-.12,2.64,0,3.46.35,1.61,1,1.56c0,0-.15,3.43.57,4.25a29.31,29.31,0,0,0,2.34,2.94A4.3,4.3,0,0,0,104.4,59.72Z"/><path class="cls-24" d="M111.1,51.6s1.38-2,1.8-2,1.23-1.8,1.55-4.35,1-3.71-.72-4.32-5-2.93-6.26-3.11-4.53-.76-5.49.5S99.67,40,99.1,41.09a20.22,20.22,0,0,0-.87,2.85,4,4,0,0,0,0,2.23c.24.8.3,2.64.45,3s1.32-2.52,1.59-3,1.17-.88,1.11-1.17.24-2.09,1.38-1.94,3.87.15,4.41.65a8.4,8.4,0,0,0,3.18,1.17c.54,0,1.32-.27,1.32.7a14.88,14.88,0,0,1-.15,3.76A16.06,16.06,0,0,0,111.1,51.6Z"/><path class="cls-25" d="M107,62.34c-.28,2.64-.58,6.66-.73,7.92s-1.79,8.36-2.29,10.07c0,.15-.08.26-.11.32s0,0,0,0a.14.14,0,0,1-.1.06,1.08,1.08,0,0,1-.48,0,15.63,15.63,0,0,1-2.72-.85c-.49-.18-1-.38-1.45-.58a11.69,11.69,0,0,1-2.18-1.08c-.16-.33-2.32-13.48-2.32-13.48s.21-1.12.46-2.41c.2-1,.43-2.12.59-2.85a6.27,6.27,0,0,1,.18-.69,2,2,0,0,1,.37-.68h0a2.94,2.94,0,0,1,.75-.62h0A3.4,3.4,0,0,0,97.69,60a43.58,43.58,0,0,0,3.83,3.76c.1.14,1.18.32,2.83-1.21A13.41,13.41,0,0,0,107,58.89h0A9.83,9.83,0,0,1,107,62.34Z"/><path class="cls-26" d="M104,80.65l-.13,0a.14.14,0,0,1-.1.06,1.08,1.08,0,0,1-.48,0c-.69.06-1.38.09-2.08.09h-.46c-.6,0-1.2,0-1.79-.11,0-.47.11-.95.16-1.41.21-1.75.4-3.32.48-4.07a1,1,0,0,0,0-.16c.16-1.35.92-4.46,1.33-6.06.13-.52.22-.88.25-1,.1-.41-.38-1.23-.59-1.91a9.78,9.78,0,0,0-1.26-2,4.92,4.92,0,0,1,2.34.12,6,6,0,0,0,2.22.29s-1.08,1-.9,1.91c.07.35.26,1,.45,1.65a8.29,8.29,0,0,1,.45,3c-.12.69,0,5.18.07,8.82,0,.14,0,.29,0,.43S104,80.55,104,80.65Z"/><path class="cls-27" d="M100.56,79.88c.06.34.12.65.18.94-.6,0-1.2,0-1.79-.11l-.65-.07A22.94,22.94,0,0,1,81.44,69.56c-.3-.49-.58-1-.84-1.53,1-3,1.55-3.52,2.1-3.69S94,61,94.61,60.2s.67-1.71,1.6-2.09h0l0,.31c.07.7.26,2.54.67,5.06.12.8.28,1.61.46,2.42.54,2.5,1.26,5.06,1.85,7.65.12.52.25,1.09.37,1.68C99.93,76.8,100.29,78.51,100.56,79.88Z"/><path class="cls-27" d="M119.25,72.05a23.1,23.1,0,0,1-2,2.27,23.48,23.48,0,0,1-3.62,2.88c-.56.35-1.13.69-1.72,1l-.43.22a23,23,0,0,1-5.13,1.83l-.39.09c-.63.13-1.28.24-1.93.31l-.13,0a.14.14,0,0,1-.1.06v0c.06-.25.13-.51.2-.78.69-2.76,1.62-6.59,1.73-7.7.18-1.79.84-6.75.84-7.51s.57-5,.46-5.8h0c0,.07.63,1,1.61,2.68s9.44,3.23,10.19,5.14A24.26,24.26,0,0,1,119.25,72.05Z"/><path class="cls-16" d="M291.8,223a23,23,0,0,1-1.71,8.71,23.54,23.54,0,0,1-1.11,2.32,22.87,22.87,0,0,1-4.13,5.43,23.36,23.36,0,0,1-3.62,2.88,19.89,19.89,0,0,1-1.73,1l-.42.22a22.55,22.55,0,0,1-5.13,1.84l-.39.08c-.61.13-1.22.23-1.84.31a22.88,22.88,0,0,1-2.89.18h-.44a21.9,21.9,0,0,1-2.45-.17,22.93,22.93,0,0,1-14.37-7.64l-.3-.35A23,23,0,1,1,291.8,223Z"/><path class="cls-28" d="M264.4,217.65a1.16,1.16,0,0,0,0,.13,64,64,0,0,1,0,11.64c-.63,5.91,2.22,13.24,5.48,14.38s6-5,6.26-7.75-1.4-5.36-2.27-8.52-1.5-6.41-1.2-8.31S264.4,217.65,264.4,217.65Z"/><path class="cls-29" d="M278.68,227.58l-2.32-1.23a1.41,1.41,0,0,1-.4,1.23c-.27.21-.51,1.94-.75,3.75a29.8,29.8,0,0,1-.67,4c-.26.81-1.09,4.6-2,7.9-.26.93-.53,1.82-.8,2.59a22.88,22.88,0,0,1-2.89.18h0c-.56-1.35-1.19-3.11-1.77-4.88h0a50.51,50.51,0,0,1-2.1-7.61,3.11,3.11,0,0,0-.59-1.67,6.78,6.78,0,0,0-1.43-1.55c-.5-.35-1.72-1.14-1.72-1.14s-1.27.77-1.42.54.21-.93.82-1.84h0a10.23,10.23,0,0,1,1.12-1.37c1.32-1.35,3-2.84,3-2.84a7.16,7.16,0,0,0-.06,2.85,13.52,13.52,0,0,0,1.42,4.18,59.57,59.57,0,0,0,4.75,7.57s2.2-7.79,2.57-9.54a11.53,11.53,0,0,0-.3-4.57s0-.06,0-.09c-.17-.95-.23-1.32-.26-1.45v-.06a31.15,31.15,0,0,1,4.27,3c.14.12.26.24.38.36C279,227.53,278.68,227.58,278.68,227.58Z"/><path class="cls-30" d="M289,234.06a22.87,22.87,0,0,1-4.13,5.43,23.36,23.36,0,0,1-3.62,2.88,19.89,19.89,0,0,1-1.73,1l-.42.22a22.55,22.55,0,0,1-5.13,1.84l-.39.08c-.61.13-1.22.23-1.84.31a22.88,22.88,0,0,1-2.89.18h-.44a21.9,21.9,0,0,1-2.45-.17,22.93,22.93,0,0,1-14.37-7.64l-.3-.35c.17-2.44.42-4.61.79-5.23a2.48,2.48,0,0,1,2-1.5l6.5-3.25h0c0,.08-.78,1.55-.47,1.46a5.51,5.51,0,0,1,1.17-.43c.21,0,2.39,1.34,2.71,2.15a1.91,1.91,0,0,0,.32.48c.55.66,1.54,1.31,1.54,1.93a23.39,23.39,0,0,0,1.17,6.47,27,27,0,0,0,2.68,3.83c.56.7,1,1.2,1,1.2s.12-.39.33-1c.74-2.28,2.5-7.71,3-9.47a26.86,26.86,0,0,0,.43-5.11c0-.25.08-.41.16-.44.42-.13.87-1,1.14-1.31a4.35,4.35,0,0,0,.41-1.53s2.45,1.55,2.29,1.27-1.64-1.8-1.41-1.76,3.65,1,4.9,1.33,4.34.39,5,.91C287.5,228.21,288.47,230.17,289,234.06Z"/><path class="cls-31" d="M264.73,205.64c-.11,0-2.24,3-2.09,5a11.45,11.45,0,0,1,0,2.77s-.48-1.46-.89-1.12-.07,2.5.19,3.18,1.15,1.55,1.44,1.38c0,0,.25,2.5,1.21,3.56s2.19,2.37,3.05,2.55a5.67,5.67,0,0,0,3-.13,20.82,20.82,0,0,0,2.94-3.4,16.71,16.71,0,0,0,.66-2.73s.57.06.8-.22a6.75,6.75,0,0,0,.43-2.32c0-.51.15-1.4-.45-1.52a.49.49,0,0,1-.17-.4c0-.29-.15-4.55-.81-5.39a5,5,0,0,0-4.75-2.33A8.52,8.52,0,0,0,264.73,205.64Z"/><path class="cls-32" d="M262.83,213.65a4.36,4.36,0,0,1-.28-.88,8.31,8.31,0,0,0-.32-1.81c-.19-.65-.35-3.63.52-4.86s3.59-3.44,4.54-3.6,3.08-.21,4,.43a12.69,12.69,0,0,1,3,3.06,6.62,6.62,0,0,1,.77,3.11,32.09,32.09,0,0,1-.12,3.63,10.32,10.32,0,0,0-.56-2.57c-.43-.74-.74-2.54-1.57-3.39s-2.21-.68-3.29-.65-3.18-.23-4,.24a6.87,6.87,0,0,0-2.43,3.09,15.71,15.71,0,0,0-.13,3.18C262.85,213.47,262.83,213.65,262.83,213.65Z"/><path class="cls-16" d="M77.88,155a22.89,22.89,0,0,1-6.95,16.46,22.79,22.79,0,0,1-5.77,4.1A23,23,0,1,1,77.88,155Z"/><path class="cls-33" d="M43.24,161.55s-1.22,2.61,3.15,3.51,14.85,2.33,15,.61.05-5.8,0-8.56.84-5.58-1.7-6.69-10.52-2.65-12.49.36S43.24,161.55,43.24,161.55Z"/><path class="cls-34" d="M58.65,153.21s-1.76,4.11-.38,7.35,6.54,6.68,6.54,6.68L42,166.19s7.18-7.51,7.39-11a20.52,20.52,0,0,1,1-5.48Z"/><path class="cls-35" d="M47.58,147.82s1.58,6.16,3.1,7.37a7.15,7.15,0,0,0,3.87,1.65,6.45,6.45,0,0,0,2.72-.5c.61-.31,2.67-2,2.93-2.94a21.74,21.74,0,0,0,1.1-8c-.36-3.36-1.79-5.77-3.39-6.77s-5.46-1.74-7.46-.31-3.8,4.84-3.51,6.63A18.42,18.42,0,0,0,47.58,147.82Z"/><path class="cls-36" d="M70.93,171.42a22.79,22.79,0,0,1-5.77,4.1,23,23,0,0,1-30-8.86,4.71,4.71,0,0,1,2-2.5,16.19,16.19,0,0,1,3.49-.74l.38-.06c.83-.14,1.53-.3,2.14-.44s1.38-.32,2-.4a6.5,6.5,0,0,1,1.59,0,4.46,4.46,0,0,1,.51.07c2.24.4,3.53,1.12,6.56,1.5a23.07,23.07,0,0,0,6.26-.33l.44-.08c.45-.08.76-.16.84-.18h.06c.39.07,1.81,1.18,3.4,2a9,9,0,0,0,1.91.78A5.09,5.09,0,0,1,70.93,171.42Z"/><path class="cls-37" d="M67.31,174.3a23.82,23.82,0,0,1-2.15,1.22l-.35-.17a7,7,0,0,1-4.08-4.86,20.47,20.47,0,0,1-.46-3.46c0-.22,0-.45-.05-.69,0-.83-.1-1.71-.13-2.58,0-.19,0-.38,0-.57-.09-2.55-.11-4.88-.11-5.49s.18-2.35.31-4.53c0-.74.08-1.53.11-2.33a32.59,32.59,0,0,0-.32-6.55,6.26,6.26,0,0,0-5.18-5c-1.22-.34-3,.12-4.39,2.24s-1,4.82-1.05,7.09c0,.23,0,.47,0,.73,0,1.07.08,2.37.15,3.64,0,.24,0,.48,0,.71.06,1.22.12,2.36.11,3.15a7.23,7.23,0,0,1-2.45,5.27,4.81,4.81,0,0,1-.54.41,3.5,3.5,0,0,1-2,.56A8.41,8.41,0,0,1,43.6,163a2,2,0,0,0-.42,0,9.58,9.58,0,0,0-1.75.44s-.35.06-.41-.06,0-.2.36-.44c.86-.64.93-3.52,1.07-6.12s.4-4.23,2-11,2.79-8.41,4.8-10a4.46,4.46,0,0,1,3.79-1s1-1.22,3.44,0,4.65,3.22,6,8.05,1.5,10.59,1.61,15.89c.08,4,.17,4.79.69,6.75.16.62.37,1.35.64,2.34C66,169.68,66.67,172.13,67.31,174.3Z"/><path class="cls-16" d="M154.2,224.41a22.86,22.86,0,0,1-1.7,8.7,23.14,23.14,0,0,1-8.87,10.64c-.56.36-1.13.69-1.72,1l-.43.22a22.55,22.55,0,0,1-5.13,1.84l-.39.08a22.9,22.9,0,0,1-4.72.49h-.44a22.25,22.25,0,0,1-2.46-.17A22.93,22.93,0,0,1,114,239.56a23.41,23.41,0,0,1-2.5-3.44,23,23,0,1,1,42.72-11.71Z"/><path class="cls-38" d="M126,223.28a77.12,77.12,0,0,1,1.39,8.57c.16,2.83,5.48,4.39,7.82,3s1.7-6.56,1.34-7.67a21,21,0,0,1-.38-6C136.38,220.63,126,223.28,126,223.28Z"/><path class="cls-39" d="M124.18,215.79l.18,1.83s-.93-1.44-1.54-.81,0,1.83.13,2.44a4.65,4.65,0,0,0,1.27,2.11,1.43,1.43,0,0,0,.88.1s.29,2.88,1.62,3.84,2.38,2.62,4,2.6a5.33,5.33,0,0,0,3.17-1,12.86,12.86,0,0,0,2.07-2.65,4.89,4.89,0,0,0,.62-2.46,9.55,9.55,0,0,1,0-1.36,1.13,1.13,0,0,0,1.23-.79,6.07,6.07,0,0,0,.33-2.12c0-.55.09-1,.07-1.35s-.13-1-.57-.87-.87.86-.87.86a30.18,30.18,0,0,1,0-3.51,4.13,4.13,0,0,0-2.8-4.21c-2.28-.74-4.24-1-6.19,0s-4.1,2.69-4.15,3.77a8,8,0,0,0,.2,2.55A7.67,7.67,0,0,1,124.18,215.79Z"/><path class="cls-40" d="M136.26,225.7a.4.4,0,0,1,0,.12.58.58,0,0,1,0-.1Z"/><path class="cls-40" d="M141.91,244.75l-.43.22a22.55,22.55,0,0,1-5.13,1.84l-.39.08a22.9,22.9,0,0,1-4.72.49h-.44a22.25,22.25,0,0,1-2.46-.17c-1.15-5.15-2.22-10-2.36-10.91a41.48,41.48,0,0,1,.21-7.14v0s0-.08,0-.12a3.56,3.56,0,0,1,.53-1.89,2.92,2.92,0,0,0,.13.77h0a2.64,2.64,0,0,0,1.06,1.71c.63.53,3.37,2.13,3.51,2.22s.61-.07.88-.21.93-1.2,2.63-3.24A4.94,4.94,0,0,0,136.3,226a.66.66,0,0,0,0-.15,1.69,1.69,0,0,0,.44.67l.17.17h0a8.41,8.41,0,0,1,1.2,1.6c0,.16,3.19,6.35,3.24,6.56S141.63,239.63,141.91,244.75Z"/><path class="cls-41" d="M136,246.89a22.9,22.9,0,0,1-4.72.49h-.44a1.25,1.25,0,0,0,0-.21,15.39,15.39,0,0,0,.05-2.73,40.79,40.79,0,0,1,0-6.8c.17-.6.52-1.9.56-2.09a2,2,0,0,0,0-.33c-.05-.54-.18-1.52-.23-1.67s-.41-.88-.1-1.28l1.79-.55a.63.63,0,0,1,.51,0,11.53,11.53,0,0,1,1.33,1,4.61,4.61,0,0,0-.57,1.26c-.14.59-.2,1-.3,1s0,.1.09.27a42.36,42.36,0,0,1,1.18,4.08C135.46,240.87,135.79,244.76,136,246.89Z"/><path class="cls-42" d="M130.82,247.16l.09.21h-.11a22.25,22.25,0,0,1-2.46-.17A22.93,22.93,0,0,1,114,239.56a12.44,12.44,0,0,1,.69-3.08c.45-.52,7.76-4.12,9.35-5a5,5,0,0,0,2.17-2.39v0a14.81,14.81,0,0,0,.12,2.15c.15,1,.7,2,1,4.08a51.77,51.77,0,0,0,2.08,8.17C129.61,244.11,130.18,245.55,130.82,247.16Z"/><path class="cls-42" d="M152.5,233.11a23.14,23.14,0,0,1-8.87,10.64c-.56.36-1.13.69-1.72,1l-.43.22a22.55,22.55,0,0,1-5.13,1.84c.44-4.23.92-8.92.93-9.9,0-1.85.17-5.18.31-7.16a4.89,4.89,0,0,0-.69-3.08h0a19.59,19.59,0,0,0,5.22,2.27c3.37,1,7.23.43,9.26,2.11A5.5,5.5,0,0,1,152.5,233.11Z"/><path class="cls-43" d="M134.62,210.61a8.32,8.32,0,0,1,1.49,3c.17,1.32.48,3.87.48,3.87a21.35,21.35,0,0,0,.47-2.15c.08-.71.5-2.68.55-3.34a3.13,3.13,0,0,0-.83-2.72,28.28,28.28,0,0,0-3.23-2.92c-.88-.54-1.78-1.39-2.82-1.15s-2,.85-2.79,1a10,10,0,0,0-3.31,1.51,13.81,13.81,0,0,0-1.62,3.07,4.89,4.89,0,0,0-.38,2.13,7.07,7.07,0,0,0,.92,3,9.86,9.86,0,0,1,1,2.41,16.84,16.84,0,0,0,.08-2.37c-.1-.31.24-.66.14-1.19s-.29-.82-.14-1.08,1.84-.87,2-1.44.72-1.49,1.44-1.49,1.78.43,3.13.43A14.26,14.26,0,0,0,134.62,210.61Z"/><path class="cls-16" d="M373.17,50.47a22.91,22.91,0,0,1-5.3,14.67c-.52.62-1.07,1.22-1.65,1.79a22.84,22.84,0,0,1-3.62,2.87c-.56.36-1.13.7-1.73,1l-.42.22a23,23,0,0,1-5.13,1.83l-.39.09a22.9,22.9,0,0,1-4.72.48h-.44q-1.25,0-2.46-.18c-.67-.08-1.33-.2-2-.34q-.57-.12-1.14-.27a23.31,23.31,0,0,1-3.43-1.24l-.5-.23a22.33,22.33,0,0,1-2-1.08A22.9,22.9,0,0,1,333,65.61a22.39,22.39,0,0,1-2.5-3.44,23,23,0,1,1,42.72-11.7Z"/><path class="cls-44" d="M348.08,48.62s2,3.43,1.82,5.08-.68,3.47.46,4.1,6.86-4.1,6.9-4.27,0-3.47-.55-4.53S354,44.18,354,44.18Z"/><path class="cls-45" d="M359.77,52.94a11.27,11.27,0,0,1-1.66,2.69,34.88,34.88,0,0,1-4.09,2h0l-.52.23-1.32.58s-2.93,4-3.55,4.94-3,6.29-2.94,7.73a6.77,6.77,0,0,1-.36,1.76q-.57-.12-1.14-.27a23.31,23.31,0,0,1-3.43-1.24l-.5-.23c-.12-.76-.26-1.62-.31-2.41a5.34,5.34,0,0,1,.55-2.62c2-4.59,6.67-8.56,7.34-9.12l.08-.06v0a2.74,2.74,0,0,1,.16-1.33A7.53,7.53,0,0,1,349.44,54l.32-.29.14-.12h0c.33-.28.42,1.27.44,1.38s0,.25.28.27A31.33,31.33,0,0,0,354,52.13h0c1.19-1.16,2.24-2.21,2.29-2.26s.35.05.72.27.47.27.74.44a8.65,8.65,0,0,1,2,2.28S359.78,52.92,359.77,52.94Z"/><path class="cls-46" d="M349.44,54c0,.07-.05.26-.6.74a2.66,2.66,0,0,0-.82,1.65c0,.05.46-.17.46-.17s.16.14-.08.25a2.88,2.88,0,0,0-.48.48l-.08.09a14,14,0,0,1-1.17,1.29c-.44.34-1.92,2.38-2.94,3.44A22.09,22.09,0,0,0,340.52,68a6.78,6.78,0,0,0,.24,3.39l-.5-.23a22.33,22.33,0,0,1-2-1.08,12.86,12.86,0,0,1-.49-2.41,14,14,0,0,1,1.62-3h0c.75-1.33,6.69-8.47,7.24-9A25.64,25.64,0,0,1,349.42,54h0A0,0,0,0,1,349.44,54Z"/><path class="cls-46" d="M367.87,65.14c-.52.62-1.07,1.22-1.65,1.79a22.84,22.84,0,0,1-3.62,2.87c-.56.36-1.13.7-1.73,1l-.42.22a23,23,0,0,1-5.13,1.83l-.39.09a22.9,22.9,0,0,1-4.72.48h-.44q-1.25,0-2.46-.18c-.67-.08-1.33-.2-2-.34q-.57-.12-1.14-.27a22.71,22.71,0,0,1,1.9-7.35C347.23,63.18,351,58,351,58s.21.12,1-.14c.31-.1.92-.35,1.6-.66l.62-.29a14.57,14.57,0,0,0,2.1-1.18c1-.75,3.07-2.93,3.34-2.92l.12,0c.68.39,3.71,2.77,4.62,3.25s2.13.78,2.47,1.75C367,58.28,367.42,61.54,367.87,65.14Z"/><path class="cls-47" d="M346.55,33.43s-3.26,1.18-3,6.39A20,20,0,0,0,345,47.73c.56,1.74,3.89,3.16,4.23,3.07a12.66,12.66,0,0,0,5.55-2.94c2.12-2.12.64-11.77-.33-13.16S346.55,33.43,346.55,33.43Z"/><path class="cls-48" d="M348.88,34s3.09-.09,4.61,5.92.51,11.72.47,13-.89,9.31-.89,9.31,2.35-11.75,3.13-12,3,1.57,3.43,2.67a24,24,0,0,0,4.74,3.3,56.58,56.58,0,0,0-1.91-13c-1.82-6.35-2.49-10.16-7-12.74s-11.13,1.48-12.23,3.72-1.06,6.35-1,10.41.42,10.16-.81,14.14-2,6-2,6,6.73-6.86,6.81-7.41a2.84,2.84,0,0,1,1.34-1.94A17.21,17.21,0,0,0,350,53.42a8.15,8.15,0,0,0-.73-2.53c-.33-.33-.4-.14-.81-.55s-2.57-2.62-3.23-3.41-.71-4.7-.87-5.36a12.41,12.41,0,0,1-.25-3.77,4.85,4.85,0,0,1,2.2-3.07A9.79,9.79,0,0,1,348.88,34Z"/><g class="cls-49"><circle class="cls-16" cx="442.91" cy="92.29" r="4.57"/><circle class="cls-16" cx="409.49" cy="150.33" r="4.57"/><circle class="cls-16" cx="322.45" cy="241.3" r="4.57"/><circle class="cls-16" cx="164.67" cy="30.33" r="4.57"/><circle class="cls-16" cx="103.99" cy="118.01" r="4.57"/><circle class="cls-16" cx="61.48" cy="229.13" r="4.57"/><circle class="cls-16" cx="31.95" cy="55.04" r="4.57"/><circle class="cls-16" cx="408.06" cy="33.42" r="4.57"/></g></g></g></svg>