<svg xmlns="http://www.w3.org/2000/svg" viewBox="0 0 473.36 258.89"><defs><style>.cls-1{fill:#c7cfff;}.cls-2{fill:#578c35;}</style></defs><title>3</title><g id="Capa_2" data-name="Capa 2"><g id="Capa_1-2" data-name="Capa 1"><rect class="cls-1" width="473.36" height="258.89" rx="14.48"/><path class="cls-2" d="M173.17,124.91a189.18,189.18,0,0,1,2.06-24c1.19-8.07,6.53-16.81,14.33-23.58s16.55-9.76,30.08-10.65c7.15-.48,47.49-.51,54.38,2s24,12.25,27.32,38c0,0-10.47.26-10.21,1.53s14,20.17,15.83,20.17,19.15-18.89,17.61-20.42-7.91,1.79-8.42-.26-9.79-50-43.23-52.7c-25.63-2-57-1.31-69.2.38-23.83,3.3-36.85,24-40.17,39.05s-2.89,30.63-1.36,30.89S173.13,126.42,173.17,124.91Z"/><path class="cls-2" d="M301.56,138.77a191.54,191.54,0,0,1-2.06,24c-1.19,8.07-6.54,16.8-14.33,23.57s-16.55,9.76-30.08,10.66c-7.15.47-47.49.51-54.38-2.05s-24-12.25-27.32-38c0,0,10.47-.25,10.21-1.53s-14-20.17-15.83-20.17-19.15,18.89-17.62,20.42,7.92-1.78,8.43.26,9.79,50,43.23,52.7c25.63,2,57,1.32,69.2-.38,23.82-3.3,36.85-24,40.16-39s2.9-30.64,1.37-30.9S301.6,137.26,301.56,138.77Z"/><path class="cls-2" d="M201.28,121.15a12.76,12.76,0,0,1-1.48-.23,1.31,1.31,0,0,1-1-.85,2.27,2.27,0,0,1,0-1.7,3.41,3.41,0,0,1,.7-1.29l1.33-1.45c.47-.51,1-1.1,1.69-1.75s1.46-1.45,2.42-2.37,2.16-2,3.59-3.28c1-.83,1.77-1.53,2.37-2.09s1.12-1.06,1.59-1.53,1-1,1.55-1.59c.86-.89,1.59-1.66,2.18-2.32A4.3,4.3,0,0,0,217.3,99a2.08,2.08,0,0,0,.13-1q-.09-.32-.69-.45a14.49,14.49,0,0,0-1.88-.2,22.51,22.51,0,0,0-4.2,0c-1.27.14-2.45.3-3.54.5-.17,0-.37,0-.61-.26s-.35-.38-.35-.48a.81.81,0,0,0,.15-.52A.65.65,0,0,0,206,96a.93.93,0,0,1,0-.73,1.48,1.48,0,0,1,.3-.49,3.9,3.9,0,0,1,1.11-.26c.54-.08,1.1-.16,1.66-.26a9.67,9.67,0,0,1,1.65-.15c.73,0,1.47,0,2.22,0a16.51,16.51,0,0,1,1.79.08c.89.07,1.81.18,2.76.31a11.89,11.89,0,0,1,2.52.63,2.34,2.34,0,0,1,1.42,1.24,2,2,0,0,1,.17,1.52L221,99.61a18.27,18.27,0,0,1-1.5,2.17c-.7.9-1.5,1.83-2.4,2.81s-1.82,1.89-2.76,2.76q-2.07,1.92-3.72,3.42c-1.1,1-2.19,2-3.27,2.9-.69.59-1.33,1.16-1.93,1.69s-1.23,1.11-1.92,1.75c-.25.32-.29.58-.13.78s.75.27,1.76.22a6.8,6.8,0,0,0,1.33-.15l1-.22a11.54,11.54,0,0,1,1.55-.15l3.2-.18c.85,0,1.62-.07,2.31-.07a1.43,1.43,0,0,1,.5.07,1.73,1.73,0,0,1,.58.59.57.57,0,0,1,.37.54,2.06,2.06,0,0,1-.15.89,1.86,1.86,0,0,1-.52.72,5.13,5.13,0,0,0-.91.13c-.43.08-.9.16-1.4.22a7.1,7.1,0,0,1-1.35,0,17.25,17.25,0,0,0-1.83.06c-.91.06-1.87.15-2.91.28a22.36,22.36,0,0,1-3,.26C202.82,121.17,201.94,121.17,201.28,121.15Z"/><path class="cls-2" d="M224.33,120.48a4.78,4.78,0,0,1-2.3-.83l-2.11-1.43a4.66,4.66,0,0,1-1-1.35,8.43,8.43,0,0,1-.55-1.9,5.66,5.66,0,0,1,0-1.85,16.22,16.22,0,0,1,.48-2.32,14.45,14.45,0,0,1,.63-1.83,21.42,21.42,0,0,1,1.13-2.24c.45-.8.91-1.56,1.36-2.29l1.1-1.76c.17-.17.24-.27.22-.29a3.28,3.28,0,0,1,.39-1c.26-.5.48-1,.68-1.35a2.26,2.26,0,0,0,.63-1,.68.68,0,0,0-.11-.59c0-.1.05-.31.31-.63a9.44,9.44,0,0,1,1.1-1.09,8.77,8.77,0,0,1,1.55-1.09A3.14,3.14,0,0,1,229.6,95c.55,0,.88.08,1,.35,0,.07.14.09.43.06s.61-.1,1-.19.73-.15,1-.2a1.52,1.52,0,0,1,.87-.35c.46-.09,1-.17,1.61-.24a9.37,9.37,0,0,0,1.07,0c.4,0,.9,0,1.52-.09.17,0,.43.06.76.32a2.69,2.69,0,0,1,.8,1,.91.91,0,0,1-.45,1.15,5.13,5.13,0,0,1-2.22.66l-1.72.24L234,98q-.69.12-2,.42l-1.56.3a2.59,2.59,0,0,0-1.09.44,4.43,4.43,0,0,0-1,1.19,3,3,0,0,0-.66,1l-.82,1.55L225.31,105c-.34.46-.45.75-.35.87a10.46,10.46,0,0,0,1.18.22,3.07,3.07,0,0,1,.91-.26q.52-.08.87-.15l3.38-.87,1.56-.38a4.72,4.72,0,0,1,.83-.15.74.74,0,0,1,1.05.05,2.55,2.55,0,0,1,.76,1.09,1.33,1.33,0,0,1,0,1.15,2,2,0,0,1-1.13.67c-.58.17-1.4.37-2.46.61s-2.39.57-4,1a19.14,19.14,0,0,1-3.3.7c-.84.07-1.23-.14-1.18-.63-.17-.1-.36,0-.57.28a4.31,4.31,0,0,0-.58,1.16c-.17.5-.32,1-.46,1.59a8.08,8.08,0,0,0-.24,1.59,2.91,2.91,0,0,0,.11,1.15,3.57,3.57,0,0,0,.94,1.46,4.62,4.62,0,0,0,1.91,1c.49,0,1,.06,1.44.11a3.33,3.33,0,0,0,1.59-.29,13.12,13.12,0,0,0,3-.78,8.52,8.52,0,0,0,1-.55.94.94,0,0,0,.39-.3.31.31,0,0,1,.28-.15c-.07.13,0,.13.07,0s.32-.29.6-.52a3.38,3.38,0,0,1,1.55-.81,3.13,3.13,0,0,1,1.29,0c.35.09.53.19.56.32s.07.63-.22,1.16a8.16,8.16,0,0,1-1.35,1.69,11,11,0,0,1-2.13,1.59,15.11,15.11,0,0,1-4.26,1.46A25.42,25.42,0,0,1,224.33,120.48Z"/><path class="cls-2" d="M240.24,120.26c0,.12-.06.13-.19,0s-.32-.27-.59-.47-.48-.5-.78-.85a1.66,1.66,0,0,1-.4-1.22c.12-.57.34-1.4.66-2.5s.71-2.25,1.15-3.45a7.31,7.31,0,0,1,.41-1.67,1.9,1.9,0,0,1,.14-.24.66.66,0,0,1,.34-.24.66.66,0,0,0,.15-.57,2.81,2.81,0,0,0-.08-.54,16.33,16.33,0,0,1,.67-2.42c.34-1,.75-2.11,1.22-3.26s.91-2.21,1.33-3.2q.18-.33.48-1a2.32,2.32,0,0,0-.26-.3,2.65,2.65,0,0,1-.33-.41,2.67,2.67,0,0,1-.43-.9,1,1,0,0,1,.24-.91,3.1,3.1,0,0,1,.43-.48,6.05,6.05,0,0,1,.68-.55,9.28,9.28,0,0,1,1.69-.76,2.54,2.54,0,0,1,1.5-.1,9.63,9.63,0,0,1,1.79.19,2.78,2.78,0,0,1,1,.41,2.77,2.77,0,0,0,.39.22,1.14,1.14,0,0,0,.46.07,5.34,5.34,0,0,1,1.48.46,14.15,14.15,0,0,1,1.52.8,3.89,3.89,0,0,1,.78.56,5.4,5.4,0,0,1,1.29,1.7,6.52,6.52,0,0,1,.67,2.48,13,13,0,0,1-.08,1.49,4.5,4.5,0,0,1-.33,1.26,7.78,7.78,0,0,1-.85,1.43,22.13,22.13,0,0,1-2.76,3.44,18.05,18.05,0,0,1-4.16,3.11l-.26.48a1.41,1.41,0,0,0,.39.77,9.12,9.12,0,0,0,1,1c.39.36.81.71,1.24,1.06s.83.64,1.18.9.63.44.8.54a2.33,2.33,0,0,1,.78-.13.53.53,0,0,1,.44.28,2.23,2.23,0,0,1,.19.89,2.76,2.76,0,0,1-.26.92,1.52,1.52,0,0,1-.34.52,3.25,3.25,0,0,0-.53.52,1,1,0,0,1-.58.37,1.32,1.32,0,0,1-.92-.34,6.7,6.7,0,0,1-3-2c-.88-1-1.83-2-2.87-3.11a3.37,3.37,0,0,0-.55-.57.8.8,0,0,0-.48-.17,4.3,4.3,0,0,0-.78.11.79.79,0,0,1-.57-.14,4.74,4.74,0,0,1-.58-.48.42.42,0,0,0-.28-.23c-.11,0-.2,0-.27.19s-.14.4-.28.76-.27.71-.41,1.05a4.22,4.22,0,0,1-.39.82,4.12,4.12,0,0,1-.18,1.42c-.17.73-.4,1.49-.67,2.28a1.57,1.57,0,0,1-.33.53q-.23.24-.33.09t-.24-.18C240.31,120.11,240.26,120.16,240.24,120.26ZM247,109.57a9.4,9.4,0,0,0,2.13-1,11.72,11.72,0,0,0,2-1.65,9.81,9.81,0,0,0,1.51-2,2.14,2.14,0,0,0,.56-.73,1.71,1.71,0,0,1,.44-.61,5.5,5.5,0,0,0,.46-.62.55.55,0,0,0-.05-.56,1.79,1.79,0,0,1,.09-.57c.06-.19.12-.37.17-.54a1.27,1.27,0,0,0,0-.92,2.5,2.5,0,0,0-1.1-.93,5.17,5.17,0,0,0-.68-.39l-.74-.33-.87-.39a2.83,2.83,0,0,1-1.2-.28,2.1,2.1,0,0,0-.95-.24c-.12,0-.24.17-.35.43a7.86,7.86,0,0,0-.35,1.09,6.15,6.15,0,0,1-.35,1,1.13,1.13,0,0,1-.5.61c0,.1-.14.45-.33,1s-.43,1.29-.71,2.09l-.81,2.41c-.27.8-.49,1.48-.67,2a6.06,6.06,0,0,0-.25,1s.08.13.24.26a1.22,1.22,0,0,0,.42.22c.1-.1.17-.14.22-.11l.82.41Z"/><path class="cls-2" d="M261.59,119.37a5.43,5.43,0,0,1-3-2.79,7.66,7.66,0,0,1-.59-4.91,7.81,7.81,0,0,1,.35-1.92,11.71,11.71,0,0,0,.42-1.7.72.72,0,0,1,.08-.24.52.52,0,0,0,0-.32c0-.14.16-.42.33-.83s.34-.8.52-1.18a3.28,3.28,0,0,1,.33-.65.32.32,0,0,0,.18-.33,3,3,0,0,1,.41-1.08,16.57,16.57,0,0,1,1.06-1.72c.43-.63.87-1.24,1.31-1.83s.84-1.08,1.18-1.48.57-.59.67-.59.13,0,.18-.15a.35.35,0,0,1,.15-.18,2.45,2.45,0,0,1,.69-.45c.38-.19.84-.41,1.37-.65s1.05-.45,1.57-.64a8,8,0,0,1,1.33-.41,3.78,3.78,0,0,1,2.92,0,4.36,4.36,0,0,1,2.08,2.22,10.22,10.22,0,0,1,.81,4.14,11.14,11.14,0,0,0-.17,1.54,3.58,3.58,0,0,1-.13,1,10.63,10.63,0,0,1-.26,1.85c-.14.7-.29,1.29-.44,1.8s-.26.77-.33.79a.54.54,0,0,1-.08.28.49.49,0,0,0-.07.24,2,2,0,0,1-.26.85c-.2.45-.43.94-.7,1.48s-.52,1-.74,1.41-.36.59-.41.59-.14.09-.11.19-.06.17-.26.37-.41.38-.65.57a1.08,1.08,0,0,1-.53.28q-.12.07,0,.18s-.17.24-.58.58-.92.71-1.53,1.14-1.24.83-1.85,1.19a5.39,5.39,0,0,1-1.48.64.4.4,0,0,1-.22.17l-.3.06a2,2,0,0,1-.91.42,6.47,6.47,0,0,1-1.31.19A2.53,2.53,0,0,1,261.59,119.37Zm3.73-3.88a8,8,0,0,0,1.5-.73,7.34,7.34,0,0,0,1.33-1,2.39,2.39,0,0,0,.73-1,2,2,0,0,1,.24-.61,1.09,1.09,0,0,1,.27-.32,5.45,5.45,0,0,0,.76-1.11c.31-.54.61-1.13.91-1.77s.55-1.26.76-1.84a6,6,0,0,0,.35-1.27s0-.26.11-.63a2.64,2.64,0,0,1,.26-.81.42.42,0,0,0,0-.28c0-.09,0-.34,0-.76s0-1.17,0-2.26a7.77,7.77,0,0,0-.25-2,1.27,1.27,0,0,0-.49-.79.89.89,0,0,0-.36-.15,2.61,2.61,0,0,0-.57-.09,1.12,1.12,0,0,0-.55.09,2.1,2.1,0,0,0-.5.17,1.61,1.61,0,0,1-.54.13.85.85,0,0,0-.41.35.77.77,0,0,0-.11.31.73.73,0,0,1-.26.54.45.45,0,0,1-.59,0,2.48,2.48,0,0,0-.8.15,1.14,1.14,0,0,0-.37.46c-.11.24-.32.63-.64,1.17a5.63,5.63,0,0,0-1.48,1.59,4.2,4.2,0,0,0-.52,1.18c-.52.94-.9,1.66-1.15,2.17a6.72,6.72,0,0,0-.5,1.35c-.08.39-.16.88-.24,1.44a5.29,5.29,0,0,0-.48,1.33,4.38,4.38,0,0,1-.26.93,2.09,2.09,0,0,0-.07.68c0,.34,0,.71.05,1.11s.09.78.15,1.11a2.61,2.61,0,0,0,.21.73,1.19,1.19,0,0,0,1.07,1A5,5,0,0,0,265.32,115.49Z"/><path class="cls-2" d="M203.46,165.73a1.37,1.37,0,0,1-.87-.2,1.31,1.31,0,0,1-.54-.61,6.64,6.64,0,0,1-.48-.8,3.33,3.33,0,0,1-.4-1.05c-.08-.79-.12-1.56-.13-2.3s0-1.77.09-3.1a15.66,15.66,0,0,1,.44-2.91c.22-.85.45-1.58.67-2.18s.39-1.06.52-1.37.14-.46.07-.46-.2.09-.31.27a6.94,6.94,0,0,0-.37.73l-.45,1c-.16.34-.33.68-.5,1-.34.76-.74,1.57-1.2,2.42s-.92,1.67-1.39,2.46l-1.22,2.07a9.48,9.48,0,0,0-.78,1.06c-.29.45-.61.93-1,1.42a6.53,6.53,0,0,1-1.07,1.22,3.45,3.45,0,0,1-1.67.95,2.42,2.42,0,0,1-1.59-.21,1.38,1.38,0,0,1-.77-.39,2.37,2.37,0,0,1-.65-.87,1.44,1.44,0,0,1-.13-1,12.84,12.84,0,0,1,0-1.61c0-.72.1-1.53.2-2.4s.21-1.72.32-2.54.21-1.49.31-2c.22-1.58.52-3.2.91-4.85s.73-3.32,1.05-5a13.49,13.49,0,0,0,.54-1.69c.16-.63.32-1.21.5-1.75,0-.55.22-.89.59-1a2,2,0,0,1,1.2-.06,1.45,1.45,0,0,1,.91.52,3.81,3.81,0,0,1,.7,1.15,2.49,2.49,0,0,1-.18,2,35.57,35.57,0,0,0-1.43,4.42,62.49,62.49,0,0,0-1.24,6.31c-.1.59-.2,1.25-.31,2s-.21,1.42-.3,2.09-.15,1.21-.18,1.64,0,.66,0,.69.41-.06.64-.33a5.7,5.7,0,0,0,.76-1.3q1.51-2.52,2.87-5c.9-1.66,1.81-3.38,2.72-5.18.42-.72.84-1.5,1.27-2.35s.85-1.64,1.24-2.35l1.23-2.15c.39-.69.74-1.28,1-1.76s.52-.74.67-.79a2,2,0,0,1,1.5.52,3.87,3.87,0,0,1,.79,1.25,2.11,2.11,0,0,1,.09.63,1.6,1.6,0,0,1-.13.78,7.58,7.58,0,0,1-.31,1.07,16.86,16.86,0,0,0-.5,1.82c-.25.66-.46,1.32-.65,2s-.31,1.19-.39,1.6c-.19,1.07-.44,2.23-.74,3.48s-.54,2.51-.75,3.74a24.36,24.36,0,0,0-.36,3.33,9.9,9.9,0,0,0,0,1.35,2.89,2.89,0,0,0,.21.65c0,.2.16.24.33.15a2,2,0,0,0,.52-.52,13,13,0,0,0,.79-1.33c.19-.37.38-.77.58-1.21s.46-1,.81-1.64c.62-1.14,1.25-2.38,1.91-3.74s1.28-2.7,1.88-4,1.13-2.52,1.58-3.55c.46-1.34.86-2.42,1.18-3.24a12.66,12.66,0,0,1,.89-1.91,2.73,2.73,0,0,1,.77-.89,1.54,1.54,0,0,1,.8-.14,1.34,1.34,0,0,1,.94.29c.1.1.27.26.52.48a.89.89,0,0,1,.33.78c-.12.39-.35,1-.68,1.92s-.72,1.87-1.15,2.95-.85,2.09-1.26,3.07-.74,1.74-1,2.31a13.46,13.46,0,0,1-.78,1.33,1.77,1.77,0,0,0-.37.85,3.64,3.64,0,0,1-.37.91c-.25.5-.56,1.11-.94,1.83s-.8,1.46-1.24,2.22-.87,1.47-1.26,2.11-.73,1.13-1,1.48a11.66,11.66,0,0,1-2,1.94,12.35,12.35,0,0,1-1.87,1.2A3.13,3.13,0,0,1,203.46,165.73Z"/><path class="cls-2" d="M213,164.66c-.45-.25-.69-.52-.73-.82a3.46,3.46,0,0,1,.5-1.55c.37-.74.95-1.89,1.74-3.44a18.57,18.57,0,0,0,1.2-2.61,7.67,7.67,0,0,0,.36-1.35c0-.27,0-.44,0-.52a.62.62,0,0,1,.08-.53,1.16,1.16,0,0,1,.48-.36,9.4,9.4,0,0,1,.85-.66,3.55,3.55,0,0,0,1-1.15q.33-.78.75-1.59c.29-.54.66-1.23,1.13-2.05s1.1-1.91,1.89-3.24c.49-.86,1.08-1.84,1.76-2.92s1.35-2.08,2-3a3.83,3.83,0,0,1,.85-.82,1.54,1.54,0,0,1,.78-.29,3.53,3.53,0,0,1,1.63.42,6.09,6.09,0,0,1,1.44,1.06,3.56,3.56,0,0,1,.85,1.18,2.43,2.43,0,0,1,.15,1.26c0,.64-.07,1.42-.15,2.33s-.16,1.89-.26,2.92-.18,2.21-.33,3.59-.29,2.83-.42,4.33-.24,3-.32,4.35a31.4,31.4,0,0,0,0,3.64,2.22,2.22,0,0,1,0,.63c0,.2,0,.36,0,.48a1.35,1.35,0,0,1-1,.21,5.86,5.86,0,0,1-1.44-.24c-.47-.15-.73-.34-.78-.56a1,1,0,0,1-.15-.19,3.58,3.58,0,0,1,0-.72c0-.43.07-1.22.12-2.38l.18-5.66-.48,0c-.22,0-.62,0-1.2.08s-1.21.11-1.89.2-1.3.17-1.87.26a9.2,9.2,0,0,0-1.18.24,1.32,1.32,0,0,0-.8.44,5.16,5.16,0,0,0-.87,1.15,4,4,0,0,1-.53,1.09,2.05,2.05,0,0,0-.39.76,2.47,2.47,0,0,0-.59.7,4.87,4.87,0,0,1-.32,1.1q-.31.87-.81,1.92a16.66,16.66,0,0,1-1,1.83l-1,1.41Zm8.84-12.73,1.39-.24a6.6,6.6,0,0,1,1-.09c.57-.15,1.05-.26,1.43-.34a9.36,9.36,0,0,1,.94-.13,1.12,1.12,0,0,1,.59.1.83.83,0,0,0,.41.26q0-.08.15-.78c.07-.47.16-1.05.26-1.74s.19-1.41.29-2.16.19-1.46.26-2.11.13-1.17.15-1.54a11.07,11.07,0,0,0-.11-1.85c-.15,0-.43.27-.83.8a22.44,22.44,0,0,0-1.41,2.11c-.53.87-1,1.81-1.57,2.83a9.24,9.24,0,0,1-.69,1.11c-.21.27-.37.4-.5.4a5.58,5.58,0,0,0-.38.58c-.21.33-.44.7-.67,1.11s-.43.77-.59,1.11S221.77,151.88,221.85,151.93Z"/><path class="cls-2" d="M233.21,165.32a2.64,2.64,0,0,1-.78-.59,3,3,0,0,1-1-1.61,4.37,4.37,0,0,1-.06-1.9,3.89,3.89,0,0,1,1-1.54,1.59,1.59,0,0,1,1.15-.37,2.34,2.34,0,0,1,1.17.46,14.65,14.65,0,0,0-.41,1.41,1.41,1.41,0,0,0,.11,1.07,2,2,0,0,0,1.22.71,10,10,0,0,0,1.28,0l1.28,0a10.13,10.13,0,0,0,1.35-.19c.33-.07.63-.15.9-.22a6,6,0,0,0,1.78-.83,5.12,5.12,0,0,0,1.22-1.24,4.12,4.12,0,0,0,.41-.95,3.7,3.7,0,0,0,.11-.9,4.07,4.07,0,0,0-.11-1,7.92,7.92,0,0,0-.39-1c-.19-.41-.48-1-.87-1.72A2.51,2.51,0,0,0,242,154c-.35-.42-.7-.82-1.05-1.22-.17-.39-.39-.84-.67-1.35a2.92,2.92,0,0,0-.92-1.09,3.2,3.2,0,0,1-.31-.7c-.12-.32-.21-.5-.28-.52-.13-.25-.22-.46-.3-.63a4,4,0,0,1,0-2.68,8,8,0,0,1,1.63-3,9.08,9.08,0,0,1,1-1.35,15.47,15.47,0,0,1,1.16-1.15c.36-.3.59-.46.69-.46a4,4,0,0,0,.85-.44,5.12,5.12,0,0,1,.78-.43,5.51,5.51,0,0,1,1.07-.31l.22,0,.15,0c.42-.12.76-.21,1-.27a3.07,3.07,0,0,1,.77-.1c.25,0,.54,0,.89,0a6.76,6.76,0,0,1,2.57,1.2,3.59,3.59,0,0,1,1,2.72l-.29,1-.63.7a1.2,1.2,0,0,0-.58.22,3.54,3.54,0,0,1-1.25.39,3.92,3.92,0,0,1-2-.35c-.1,0-.14-.09-.11-.2s.12-.18.29-.21a2.21,2.21,0,0,0,.36-.33,4.83,4.83,0,0,0,.46-.59c.32-.45.4-.78.24-1a1,1,0,0,0-.91-.35,7.41,7.41,0,0,0-2.4.46,5.42,5.42,0,0,0-2.11,1.5,10.56,10.56,0,0,0-1.15,1.76,3.15,3.15,0,0,0-.37,1.39,3.17,3.17,0,0,1,.09.75,2.6,2.6,0,0,0,.28,1c.82,1.14,1.45,2,1.91,2.63s.77,1.06.94,1.33a1.46,1.46,0,0,1,.11.18.28.28,0,0,1,0,.15l.41.74.48.93a1.9,1.9,0,0,1,.22.59,6.79,6.79,0,0,1,.37.78,4.37,4.37,0,0,1,.35.94c.11.41.2.84.28,1.3a8.12,8.12,0,0,1,.11,1.24,4,4,0,0,1-.22,1.12,8.52,8.52,0,0,1-.58,1.37,3.44,3.44,0,0,1-.87,1.13,12.89,12.89,0,0,1-1.51,1.07A16.12,16.12,0,0,1,242,165a9.33,9.33,0,0,1-2.29.7c-.74.13-1.44.23-2.09.3a14.69,14.69,0,0,1-1.81.09,6.12,6.12,0,0,1-1.5-.2A2.77,2.77,0,0,1,233.21,165.32Z"/><path class="cls-2" d="M255.67,164.88a2.07,2.07,0,0,1-1.22.07,1.26,1.26,0,0,1-.84-.79,4.08,4.08,0,0,1-.15-1.89,14.13,14.13,0,0,1,.84-3.16c.07-.22.22-.67.46-1.35s.5-1.44.8-2.28.58-1.61.86-2.33a11,11,0,0,1,.69-1.48,2.07,2.07,0,0,0,.17-.55c0-.15,0-.28,0-.37a1.17,1.17,0,0,1,.17-.5c.11-.21.22-.43.32-.65s.22-.48.31-.69a1.32,1.32,0,0,0,.13-.53c.25-.87.47-1.58.67-2.15a5.9,5.9,0,0,1,.66-1.4,6.69,6.69,0,0,1,.57-1.21,1,1,0,0,0,.25-.57c0-.05-.26-.07-.76-.07s-1.11,0-1.8.05l-2,.13a7.48,7.48,0,0,0-1.35.19l-.59.13a.61.61,0,0,1-.33,0,1.81,1.81,0,0,1-.47-.57,3.47,3.47,0,0,1-.44-1.09c-.09-.4,0-.67.28-.81a3.47,3.47,0,0,1,1.35-.52,10.74,10.74,0,0,1,1.46-.15c.52,0,1.09-.08,1.7-.15a10.58,10.58,0,0,0,1.48-.09q.63-.09.78-.09a3.49,3.49,0,0,0,.91-.15,4.58,4.58,0,0,1,1.24-.15,5.2,5.2,0,0,0,1-.09,4.65,4.65,0,0,1,.85-.09H266a8.91,8.91,0,0,0,1.41-.15q.88-.15,1.44-.3a6.52,6.52,0,0,1,2.81-.11,1.67,1.67,0,0,1,1.37,1.26c.1.54-.26,1-1.07,1.4a13.14,13.14,0,0,1-4.51.78l-2.19.22c-.39.05-.59.19-.59.41a.54.54,0,0,1-.17.39c-.11.11-.21.23-.31.35a1.6,1.6,0,0,0-.44.61,10.8,10.8,0,0,0-.58,1.26c-.18.48-.34.92-.48,1.31a3,3,0,0,0-.2.78,1.73,1.73,0,0,0-.26.63c-.1.25-.23.53-.39.85l-.43.85q-.56,1.48-.9,2.37l-.56,1.39-.35.87q-.15.48-.48,1.62a20,20,0,0,1-.7,2,1.64,1.64,0,0,1-.32.35.48.48,0,0,0-.13.39s-.07.24-.2.65-.31.89-.54,1.46-.44,1.13-.64,1.68-.4,1-.56,1.41S255.72,164.88,255.67,164.88Z"/><path class="cls-2" d="M275.42,165.29a19,19,0,0,1-2.64-.17,4.4,4.4,0,0,1-2.13-.91,4.47,4.47,0,0,1-1.61-2.46,8.09,8.09,0,0,1,.24-4.23,14,14,0,0,1,.43-1.63c.16-.47.3-.7.42-.7s.06-.31.11-.54.1-.51.15-.83.21-.77.26-1a1.11,1.11,0,0,1,.3-.54,1.24,1.24,0,0,0,.26-.5c.09-.28.16-.45.18-.5a3.77,3.77,0,0,1,.22-.92,3.45,3.45,0,0,0,.56-1.23,3.47,3.47,0,0,1,.31-.44,2.37,2.37,0,0,0,.39-.78c.74-1.3,1.35-2.38,1.81-3.23a8.06,8.06,0,0,0,.86-2,7.75,7.75,0,0,0,.35-1,2.27,2.27,0,0,1,.42-.87c-.05-.13.09-.26.43-.41a12,12,0,0,1,1.31-.48,15.77,15.77,0,0,1,1.74-.44,11.44,11.44,0,0,1,1.7-.23,2.54,2.54,0,0,1,1-.22c.51-.05,1.09-.07,1.76-.07s1.28,0,1.85.07a3.34,3.34,0,0,1,1.3.22l1,.45.52.51a1.56,1.56,0,0,1,.42.71c.06.25-.1.47-.5.66a3.25,3.25,0,0,1-1.22.19c-.74,0-1.52.07-2.33.07a10.94,10.94,0,0,0-2.37.23,8.23,8.23,0,0,1-1.4.22,10.28,10.28,0,0,1-1.93.22s-.17.14-.37.42-.41.62-.65,1-.44.74-.62,1.06a2,2,0,0,0-.28.59,1.45,1.45,0,0,1-.3.81c-.2.3-.43.65-.7,1a2.39,2.39,0,0,0-.48,1c-.08.36,0,.58.22.68.39-.07.94-.15,1.65-.22l2.09-.2c.69-.06,1.22-.1,1.59-.1a2,2,0,0,1,1-.07,2.77,2.77,0,0,1,.6.22.59.59,0,0,1,.53.45,1.33,1.33,0,0,1,0,.74.69.69,0,0,1-.37.48,3,3,0,0,1-1.11.51c-.59.2-1.29.4-2.09.6s-1.6.37-2.4.53l-2.07.39a4,4,0,0,1-1,.11c-.15-.34-.32-.34-.5,0a10.65,10.65,0,0,0-.65,2.17c-.27.61-.47,1.08-.61,1.38a5.3,5.3,0,0,0-.31,1c-.08.36-.19.92-.34,1.69a2.85,2.85,0,0,0,.06,1.79,2.74,2.74,0,0,0,1.5,1.35,6.94,6.94,0,0,0,1.7.11,12.57,12.57,0,0,0,2.55-.44c.45-.27.89-.53,1.33-.76s.76-.4.93-.5a1.74,1.74,0,0,0,.57-.17,1.67,1.67,0,0,1,.54-.16.89.89,0,0,1,.74-.41q.08,0,.42.33a4.39,4.39,0,0,1,.69.85,2,2,0,0,1,.33,1.08c0,.24-.41.56-1.24,1s-1.85.84-3.09,1.33c-.61.27-1.11.48-1.49.63a5.75,5.75,0,0,1-1.1.31A7.17,7.17,0,0,1,275.42,165.29Z"/><path class="cls-2" d="M266.53,39.53a1,1,0,0,1-1-1V24.23a1,1,0,0,1,2,0v14.3A1,1,0,0,1,266.53,39.53Z"/><path class="cls-2" d="M293,48.8a1,1,0,0,1-.57-.18,1,1,0,0,1-.25-1.39c1.25-1.79,7.58-10.79,9.16-12a1,1,0,0,1,1.2,1.6c-1,.77-5.89,7.47-8.72,11.52A1,1,0,0,1,293,48.8Z"/><path class="cls-2" d="M311.68,63a1,1,0,0,1-.78-.37,1,1,0,0,1,.16-1.41c10.55-8.46,11-8.39,11.48-8.32a1,1,0,0,1,.12,2c-1,.51-6.58,4.9-10.35,7.92A1,1,0,0,1,311.68,63Z"/><path class="cls-2" d="M322.41,83.27a1,1,0,0,1-.45-1.89c6.53-3.24,16.15-8.45,17.1-9.88a1,1,0,0,1,1.67,1.11c-1.6,2.4-15.18,9.22-17.88,10.56A1,1,0,0,1,322.41,83.27Z"/><path class="cls-2" d="M332.11,99.23a1,1,0,0,1-.24-2L343,94.58a1,1,0,0,1,1.2.73,1,1,0,0,1-.73,1.21L332.34,99.2Z"/><path class="cls-2" d="M332.11,124a1,1,0,0,1-.08-2c.5,0,12.19-.9,14.37-.9a1,1,0,0,1,0,2c-2.1,0-14.1.88-14.22.89Z"/><path class="cls-2" d="M345.77,154h-.18l-15.7-2.81a1,1,0,0,1,.35-2l15.7,2.81a1,1,0,0,1-.17,2Z"/><path class="cls-2" d="M341.68,180.16a1,1,0,0,1-.86-.49c-.83-.85-9-3.85-16.45-6.21a1,1,0,0,1,.6-1.9c6.16,1.95,16.63,5.48,17.57,7.1a1,1,0,0,1-.36,1.37A1,1,0,0,1,341.68,180.16Z"/><path class="cls-2" d="M333.17,209.27a1.07,1.07,0,0,1-.35-.06c-1.4-.53-15.57-10.51-18.4-12.5a1,1,0,1,1,1.16-1.64c6.38,4.5,16.89,11.82,18,12.27a1,1,0,0,1,.55,1.3A1,1,0,0,1,333.17,209.27Z"/><path class="cls-2" d="M300.58,221.91a1,1,0,0,1-.84-.45l-7.66-11.62a1,1,0,0,1,1.67-1.1l7.66,11.62a1,1,0,0,1-.29,1.38A.91.91,0,0,1,300.58,221.91Z"/><path class="cls-2" d="M271.47,235.19h-.11a1,1,0,0,1-.89-1.1c.14-1.23-3.08-8.21-6.14-14a1,1,0,0,1,.41-1.35,1,1,0,0,1,1.36.41c1.56,2.94,6.63,12.72,6.36,15.14A1,1,0,0,1,271.47,235.19Z"/><path class="cls-2" d="M242.23,239.27a1,1,0,0,1-1-.76c0-.18-.16-.65.61-15.1a1,1,0,0,1,1.06-.95,1,1,0,0,1,.94,1.06c-.28,5.21-.7,13.73-.65,14.6a1,1,0,0,1-.74,1.12A1.07,1.07,0,0,1,242.23,239.27Z"/><path class="cls-2" d="M216.57,239.27a1,1,0,0,1-.53-.15,1,1,0,0,1-.37-1.28c.28-1.12-.08-8.94-.6-15.94a1,1,0,0,1,2-.15c.78,10.45.9,16.19.36,17.05A1,1,0,0,1,216.57,239.27Zm-.84-1.53Z"/><path class="cls-2" d="M185.81,237.23a1,1,0,0,1-1-1c0-.2,0-.54,5.15-16.27a1,1,0,0,1,1.27-.64,1,1,0,0,1,.64,1.26c-1.94,5.91-4.87,14.93-5.07,15.79A1,1,0,0,1,185.81,237.23Z"/><path class="cls-2" d="M169.34,224.46a1,1,0,0,1-.53-.15,1,1,0,0,1-.32-1.38l8.56-13.64a1,1,0,0,1,1.69,1.07L170.19,224A1,1,0,0,1,169.34,224.46Z"/><path class="cls-2" d="M139,206.21a1,1,0,0,1-.28-2c.81-.29,10.74-5.36,16.8-8.48a1,1,0,1,1,.91,1.77c-3.79,2-16.24,8.37-17.16,8.63A1.26,1.26,0,0,1,139,206.21Z"/><path class="cls-2" d="M133.47,174.68a1,1,0,1,1,0-2c1.13,0,10.65-1.87,16.39-3.05a1,1,0,0,1,.4,2C148.72,171.91,135.18,174.68,133.47,174.68Z"/><path class="cls-2" d="M132.4,135c-2.3,0-4.4,0-5.48-.06a1,1,0,0,1-1-1,1,1,0,0,1,1-1c3.13.13,15.27,0,15.39,0h0a1,1,0,0,1,1,1,1,1,0,0,1-1,1C142.08,135,136.85,135,132.4,135Z"/><path class="cls-2" d="M143.94,108.16h-.15c-3.92-.56-14.47-2-16.19-2a1,1,0,0,1,0-2c2.21,0,15.9,2,16.48,2a1,1,0,0,1,.85,1.14A1,1,0,0,1,143.94,108.16Z"/><path class="cls-2" d="M148.91,83.53a1.12,1.12,0,0,1-.43-.1c-7.08-3.42-15.16-7.15-16.19-7.32a1,1,0,0,1-.82-1.15,1,1,0,0,1,1.13-.83c1.72.27,14.25,6.29,16.75,7.5a1,1,0,0,1,.47,1.33A1,1,0,0,1,148.91,83.53Z"/><path class="cls-2" d="M166.53,62a1,1,0,0,1-.81-.42c-.08-.11-8-11.15-10.93-13.6a1,1,0,1,1,1.28-1.53c3.12,2.6,10.94,13.51,11.28,14a1,1,0,0,1-.24,1.39A1,1,0,0,1,166.53,62Z"/><path class="cls-2" d="M189.26,44.21a1,1,0,0,1-.91-.58c-2.58-5.6-7.29-15-8.93-16.38a1,1,0,1,1,1.29-1.53c2.52,2.12,8.75,15.55,9.45,17.07a1,1,0,0,1-.49,1.33A1,1,0,0,1,189.26,44.21Z"/><path class="cls-2" d="M211.47,37.82a1,1,0,0,1-1-1c-.24-7.1-.63-15.11-.85-16a1,1,0,0,1,.69-1.23,1,1,0,0,1,1.22.66c.4,1.34.85,14,.94,16.47a1,1,0,0,1-1,1Z"/><path class="cls-2" d="M239,36.42l-.2,0a1,1,0,0,1-.78-1.19c0-.07,1.58-7.67.05-11.55a1,1,0,0,1,.57-1.3,1,1,0,0,1,1.29.57c1.75,4.44.12,12.36.05,12.7A1,1,0,0,1,239,36.42Z"/></g></g></svg>